<?xml version="1.0" encoding="UTF-8" standalone="no"?>
<!-- Created with Inkscape (http://www.inkscape.org/) -->

<svg
   version="1.1"
   id="svg2"
   width="1600"
   height="1600"
   viewBox="0 0 1600 1600"
   sodipodi:docname="404-error.eps"
   xmlns:inkscape="http://www.inkscape.org/namespaces/inkscape"
   xmlns:sodipodi="http://sodipodi.sourceforge.net/DTD/sodipodi-0.dtd"
   xmlns="http://www.w3.org/2000/svg"
   xmlns:svg="http://www.w3.org/2000/svg">
  <defs
     id="defs6" />
  <sodipodi:namedview
     id="namedview4"
     pagecolor="#ffffff"
     bordercolor="#000000"
     borderopacity="0.25"
     inkscape:showpageshadow="2"
     inkscape:pageopacity="0.0"
     inkscape:pagecheckerboard="0"
     inkscape:deskcolor="#d1d1d1" />
  <g
     id="g8"
     inkscape:groupmode="layer"
     inkscape:label="ink_ext_XXXXXX"
     transform="matrix(1.3333333,0,0,-1.3333333,0,1600)">
    <g
       id="g10"
       transform="scale(0.1)">
      <path
         d="M 0,0 H 12000 V 12000 H 0 Z"
         style="fill:#b78ece;fill-opacity:1;fill-rule:nonzero;stroke:none"
         id="path12" />
      <path
         d="m 8438.09,2432.91 c -995.53,0 -1802.57,74.2 -1802.57,165.72 0,91.52 807.04,165.72 1802.57,165.72 995.54,0 1802.61,-74.2 1802.61,-165.72 0,-91.52 -807.07,-165.72 -1802.61,-165.72"
         style="fill:#a280bb;fill-opacity:1;fill-rule:nonzero;stroke:none"
         id="path14" />
      <path
         d="m 3104.19,2432.91 c -1079.62,0 -1954.83,80.46 -1954.83,179.72 0,46.18 189.46,88.29 500.89,120.13 -43.18,-42.68 -87.96,-82.82 -134.47,-120.13 0,0 1282.46,0 2415.11,0 v 0 0 L 3919.65,2776 c 228.42,-9.65 433.06,-23.22 603.8,-39.79 v -54.87 c 0,-42.69 34.61,-77.29 77.3,-77.29 42.68,0 77.29,34.6 77.29,77.29 v 37.9 c 239.47,-29.83 380.97,-66.7 380.97,-106.61 0,-99.26 -875.21,-179.72 -1954.82,-179.72"
         style="fill:#a280bb;fill-opacity:1;fill-rule:nonzero;stroke:none"
         id="path16" />
      <path
         d="m 4600.75,7340.26 c 0,0 -2179.21,181.7 -2704.82,-921.43 0,0 999.3,635.92 2704.82,402.32 v 519.11"
         style="fill:#f4e7dd;fill-opacity:1;fill-rule:nonzero;stroke:none"
         id="path18" />
      <path
         d="m 1895.93,6418.83 c 0,0 143.11,186.01 552.61,354.72 31.4,-28.1 52.06,-59.6 64.41,-94.11 -400.18,-123.06 -615.49,-259.64 -617.01,-260.61 -0.01,0 -0.01,0 -0.01,0"
         style="fill:#e7cebb;fill-opacity:1;fill-rule:nonzero;stroke:none"
         id="path20" />
      <path
         d="m 4523.45,6831.2 c -235.68,29.05 -457.5,41.5 -664.54,41.51 v 0 c 207.12,0 428.76,-12.45 664.54,-41.51 v 0"
         style="fill:#ab80b3;fill-opacity:1;fill-rule:nonzero;stroke:none"
         id="path22" />
      <path
         d="m 4523.45,6831.2 c -235.78,29.06 -457.42,41.51 -664.54,41.51 v 0 0 c -102.93,0 -202.23,-3.08 -297.78,-8.73 -88.72,51.96 -191.37,93.24 -309.55,120.4 239.32,35.48 516.92,57.29 837.89,57.29 136.7,0 281.2,-3.95 433.98,-12.5 V 6831.2"
         style="fill:#e7cebb;fill-opacity:1;fill-rule:nonzero;stroke:none"
         id="path24" />
      <path
         d="m 4600.75,2604.05 c 42.68,0 77.29,34.6 77.29,77.29 v 4658.92 c 0,42.69 -34.61,77.29 -77.29,77.29 -42.69,0 -77.3,-34.6 -77.3,-77.29 V 2681.34 c 0,-42.69 34.61,-77.29 77.3,-77.29"
         style="fill:#6f4324;fill-opacity:1;fill-rule:nonzero;stroke:none"
         id="path26" />
      <path
         d="m 2512.97,6679.39 c -0.01,0.02 -0.01,0.02 -0.01,0.04 22.32,6.86 45.3,13.71 68.78,20.47 v -0.04 c -23.5,-6.76 -46.43,-13.59 -68.77,-20.47"
         style="fill:#ab80b3;fill-opacity:1;fill-rule:nonzero;stroke:none"
         id="path28" />
      <path
         d="m 2512.96,6679.43 -0.01,0.01 c 22.33,6.87 45.31,13.72 68.79,20.48 0,-0.02 0,0 0,-0.02 -23.48,-6.76 -46.46,-13.61 -68.78,-20.47 m -64.42,94.12 c -30.65,27.44 -71.54,51.64 -124.91,72.22 76.12,0 148.91,-1.79 218.54,-5.23 5.5,-8.17 10.38,-16.6 14.64,-25.2 -37.99,-13.73 -74.07,-27.7 -108.27,-41.79"
         style="fill:#e7cebb;fill-opacity:1;fill-rule:nonzero;stroke:none"
         id="path30" />
      <path
         d="m 2512.95,6679.44 c -12.35,34.51 -33.01,66.01 -64.41,94.11 34.2,14.09 70.28,28.06 108.27,41.79 17.4,-35.14 24.74,-73.77 24.93,-115.42 -23.48,-6.76 -46.46,-13.61 -68.79,-20.48"
         style="fill:#d8b89f;fill-opacity:1;fill-rule:nonzero;stroke:none"
         id="path32" />
      <path
         d="m 3741.96,5356.74 188.93,-2744.11 c -1132.65,0 -2415.11,0 -2415.11,0 956.12,767.06 1197.51,2744.11 1197.51,2744.11 h 1028.67"
         style="fill:#43374e;fill-opacity:1;fill-rule:nonzero;stroke:none"
         id="path34" />
      <path
         d="m 2405.78,5912.38 c 0,-455.86 369.56,-825.41 825.42,-825.41 455.87,0 825.42,369.55 825.42,825.41 0,577.99 -374.73,1332.58 -1679.19,1045.6 442.53,-170.6 28.35,-589.73 28.35,-1045.6"
         style="fill:#43374e;fill-opacity:1;fill-rule:nonzero;stroke:none"
         id="path36" />
      <path
         d="m 2587.72,6039 c 22.14,95.67 131.74,386.69 646.21,386.69 459.54,0 589.04,-232.21 625.18,-349.99 13.81,-52.84 21.21,-108.27 21.21,-165.44 0,-360.47 -292.22,-652.68 -652.68,-652.68 -360.47,0 -652.69,292.21 -652.69,652.68 0,44.08 4.44,87.12 12.77,128.74"
         style="fill:#f4e7dd;fill-opacity:1;fill-rule:nonzero;stroke:none"
         id="path38" />
      <path
         d="m 2587.34,6037.08 c 0.12,0.64 0.25,1.28 0.38,1.92 -0.13,-0.64 -0.26,-1.28 -0.38,-1.92"
         style="fill:#3f3142;fill-opacity:1;fill-rule:nonzero;stroke:none"
         id="path40" />
      <path
         d="m 2582.5,6009.18 c 1.43,9.36 3.02,18.67 4.84,27.9 0.12,0.64 0.25,1.28 0.38,1.92 v 0 c 22.14,95.67 131.74,386.69 646.21,386.69 459.54,0 589.04,-232.21 625.18,-349.99 5.6,-21.42 9.84,-43.37 13.27,-65.59 -9.21,21.24 -65.27,271.85 -644.74,271.85 -579.47,0 -642.44,-266.25 -645.14,-272.78"
         style="fill:#e7cebb;fill-opacity:1;fill-rule:nonzero;stroke:none"
         id="path42" />
      <path
         d="m 3543.24,5077.23 h -740.71 l 23.83,115.67 c 11.92,-6.72 24.01,-13.15 36.29,-19.29 v -36.26 h 83.94 c 88.72,-32.59 184.58,-50.38 284.61,-50.38 100.03,0 195.89,17.79 284.61,50.38 h 12.73 14.7 v -60.12"
         style="fill:#352c3d;fill-opacity:1;fill-rule:nonzero;stroke:none"
         id="path44" />
      <path
         d="m 3231.2,5086.97 c -100.03,0 -195.89,17.79 -284.61,50.38 h 182.21 68.85 96.6 68.85 96.59 56.12 c -88.72,-32.59 -184.58,-50.38 -284.61,-50.38 m -368.55,86.64 c -12.28,6.14 -24.37,12.57 -36.29,19.29 l 36.28,176.19 h 0.01 v -195.48"
         style="fill:#352c3d;fill-opacity:1;fill-rule:nonzero;stroke:none"
         id="path46" />
      <path
         d="m 2862.65,5369.09 h -0.01 l 0.01,0.02 v -0.02"
         style="fill:#c0b6ac;fill-opacity:1;fill-rule:nonzero;stroke:none"
         id="path48" />
      <path
         d="m 2862.65,5137.35 h 729.973 v 274.809 H 2862.65 Z"
         style="fill:#f4e7dd;fill-opacity:1;fill-rule:nonzero;stroke:none"
         id="path50" />
      <path
         d="m 3402.45,5771.8 c 0,-96.03 77.85,-173.87 173.87,-173.87 96.03,0 173.87,77.84 173.87,173.87 0,96.02 -77.84,173.87 -173.87,173.87 -96.02,0 -173.87,-77.85 -173.87,-173.87"
         style="fill:#43374e;fill-opacity:1;fill-rule:nonzero;stroke:none"
         id="path52" />
      <path
         d="m 2900.61,5771.8 c 0,-96.03 77.84,-173.87 173.86,-173.87 96.03,0 173.87,77.84 173.87,173.87 0,96.02 -77.84,173.87 -173.87,173.87 -96.02,0 -173.86,-77.85 -173.86,-173.87"
         style="fill:#43374e;fill-opacity:1;fill-rule:nonzero;stroke:none"
         id="path54" />
      <path
         d="m 3528.54,5137.35 h -68.85 l 17.71,114.23 c 1.48,9.55 9.1,14.33 16.72,14.33 7.62,0 15.24,-4.78 16.71,-14.33 l 17.71,-114.23"
         style="fill:#e7cebb;fill-opacity:1;fill-rule:nonzero;stroke:none"
         id="path56" />
      <path
         d="m 3363.1,5137.35 h -68.85 l 17.7,114.23 c 1.48,9.55 9.1,14.33 16.72,14.33 7.62,0 15.24,-4.78 16.72,-14.33 l 17.71,-114.23"
         style="fill:#e7cebb;fill-opacity:1;fill-rule:nonzero;stroke:none"
         id="path58" />
      <path
         d="m 3197.65,5137.35 h -68.85 l 17.71,114.23 c 1.48,9.55 9.1,14.33 16.72,14.33 7.62,0 15.24,-4.78 16.72,-14.33 l 17.7,-114.23"
         style="fill:#e7cebb;fill-opacity:1;fill-rule:nonzero;stroke:none"
         id="path60" />
      <path
         d="m 4481.47,4622.07 v -618.33 c -526.72,45.8 -760.03,519.57 -760.03,519.57 v 489.51 c 0,0 247.62,-465.18 760.03,-390.75"
         style="fill:#43374e;fill-opacity:1;fill-rule:nonzero;stroke:none"
         id="path62" />
      <path
         d="m 4481.47,4154.45 c -57.52,38.52 -95.42,104.07 -95.42,178.49 0,74.43 37.9,139.98 95.42,178.5 v -356.99"
         style="fill:#352c3d;fill-opacity:1;fill-rule:nonzero;stroke:none"
         id="path64" />
      <path
         d="m 4600.75,4118.25 c -27.28,0 -53.28,5.29 -77.3,14.57 v 400.25 c 24.02,9.28 50.02,14.57 77.3,14.57 27.29,0 53.28,-5.29 77.29,-14.57 v -400.25 c -24.01,-9.28 -50,-14.57 -77.29,-14.57"
         style="fill:#58351f;fill-opacity:1;fill-rule:nonzero;stroke:none"
         id="path66" />
      <path
         d="m 4386.05,4390.2 c 0,-118.58 96.13,-214.7 214.7,-214.7 118.57,0 214.7,96.12 214.7,214.7 0,118.57 -96.13,214.7 -214.7,214.7 -118.57,0 -214.7,-96.13 -214.7,-214.7"
         style="fill:#f4e7dd;fill-opacity:1;fill-rule:nonzero;stroke:none"
         id="path68" />
      <path
         d="m 2465.46,3600.11 c 0,-118.57 96.12,-214.7 214.7,-214.7 118.57,0 214.7,96.13 214.7,214.7 0,118.58 -96.13,214.7 -214.7,214.7 -118.58,0 -214.7,-96.12 -214.7,-214.7"
         style="fill:#f4e7dd;fill-opacity:1;fill-rule:nonzero;stroke:none"
         id="path70" />
      <path
         d="m 2982.88,3589.37 -88.25,0.92 c 0.15,3.25 0.23,6.53 0.23,9.82 0,118.58 -96.13,214.7 -214.7,214.7 -118.58,0 -214.7,-96.12 -214.7,-214.7 0,-1.8 0.02,-3.59 0.07,-5.38 l -105.27,1.09 357.83,1352.59 196.09,-30.06 68.7,-1328.98"
         style="fill:#352c3d;fill-opacity:1;fill-rule:nonzero;stroke:none"
         id="path72" />
      <path
         d="m 2894.63,3590.29 -429.1,4.44 c -0.05,1.79 -0.07,3.58 -0.07,5.38 0,118.58 96.12,214.7 214.7,214.7 118.57,0 214.7,-96.12 214.7,-214.7 0,-3.29 -0.08,-6.57 -0.23,-9.82"
         style="fill:#c0b6ac;fill-opacity:1;fill-rule:nonzero;stroke:none"
         id="path74" />
      <path
         d="M 2948.53,4948.41 V 3625.87 h -536.74 l 306.3,1322.54 h 230.44"
         style="fill:#43374e;fill-opacity:1;fill-rule:nonzero;stroke:none"
         id="path76" />
      <path
         d="m 8808.88,4960.22 18.03,-1201.15 c 0,0 -662.59,-236.59 -1726.24,-221.79 L 6820.9,4748.07 c 0,0 1341.16,-72.53 1987.98,212.15"
         style="fill:#f4e7dd;fill-opacity:1;fill-rule:nonzero;stroke:none"
         id="path78" />
      <path
         d="m 8825.45,3856.35 v 0 l -4.95,329.78 v 0 l 4.95,-329.78"
         style="fill:#ab80b3;fill-opacity:1;fill-rule:nonzero;stroke:none"
         id="path80" />
      <path
         d="m 8754.85,3818.57 c -13.26,0 -24.01,10.75 -24.01,24.01 v 152.71 c -17.52,5.25 -30.36,21.3 -30.36,40.53 v 137.42 c 0,9.65 3.21,18.55 8.63,25.69 l 111.39,-12.8 4.95,-329.78 c -10.88,2.29 -19.05,11.93 -19.05,23.49 v 90.45 c -2.73,-0.62 -5.55,-1.02 -8.47,-1.02 -6.99,0 -13.44,2.02 -19.07,5.29 v -131.98 c 0,-13.26 -10.75,-24.01 -24.01,-24.01"
         style="fill:#e7cebb;fill-opacity:1;fill-rule:nonzero;stroke:none"
         id="path82" />
      <path
         d="m 9769.09,5069.71 3,84.99 -146.86,26.36 -75.33,-98.73 28.52,160.16 88.54,72.28 -91.6,71.25 -86.74,-93.65 -28.98,-202.58 -53.49,107.9 8.88,137.95 -102.24,-13.2 2.41,-173.61 85.4,-107.21 -590.52,-161.05 2.98,-199.15 675.66,185.68 50.7,-102.06 191.37,4.07 -17.64,123.51 -95.01,-33.94 -46.14,113.37 95.99,118.41 101.1,-20.75"
         style="fill:#c1d215;fill-opacity:1;fill-rule:nonzero;stroke:none"
         id="path84" />
      <path
         d="m 9784.2,3831.48 c -252.99,-26.46 -188.63,-312.39 -188.63,-312.39 l -436.32,239.46 -332.33,0.52 c 0,0 -662.6,-236.59 -1726.25,-221.79 l 113.39,-376.14 -83.12,-582.61 c 0,0 583.14,-67.45 404.85,110.84 -178.3,178.29 -297.97,20.16 -297.97,20.16 l 148.87,393.54 -9.84,273.3 c 176.31,-4.97 696.88,-2.26 1399.22,162.61 l 335.58,54.96 493.68,-210.65 c 0,0 456.77,477.23 178.87,448.19"
         style="fill:#43374e;fill-opacity:1;fill-rule:nonzero;stroke:none"
         id="path86" />
      <path
         d="m 8314.16,4666.5 46.33,-74.98 -52.36,-94.82 195.1,-549.93 -181.58,-247.35 -212.59,197.6 85.47,583.09 -73.96,91.99 31.73,65.65 161.86,28.75"
         style="fill:#43374e;fill-opacity:1;fill-rule:nonzero;stroke:none"
         id="path88" />
      <path
         d="m 7053.96,4586.02 -15.65,-195.24 378.15,-20.08 1.88,194.15 -364.38,21.17"
         style="fill:#f4e7dd;fill-opacity:1;fill-rule:nonzero;stroke:none"
         id="path90" />
      <path
         d="m 9803.34,4270.49 38.95,57.81 -134.69,111.16 -140.93,0.51 -2148.33,124.88 -1.88,-194.15 1824.68,-96.93 -74.21,-66.04 40.04,-123.6 115.89,37.19 -30.01,82.34 107,58.7 87.1,-82.25 -70.62,-104.3 74.06,-41.79 105.9,127.47 -62.21,127.22 129.03,-99.07 23.41,-111.87 105.43,48.52 -43.2,120.1 -166.49,118.99 117.59,-14.27 103.49,-80.62"
         style="fill:#c1d215;fill-opacity:1;fill-rule:nonzero;stroke:none"
         id="path92" />
      <path
         d="m 8820.5,4186.13 v 0 l -0.85,56.51 v 0 l -0.8,53.56 h 0.01 l 1.64,-110.07"
         style="fill:#a280bb;fill-opacity:1;fill-rule:nonzero;stroke:none"
         id="path94" />
      <path
         d="m 8709.11,4198.93 -307.88,35.35 -30.41,85.72 448.04,-23.8 0.79,-53.56 c -6.17,4.29 -13.64,6.84 -21.72,6.84 -19.82,0 -35.92,-15.17 -37.77,-34.5 -2.46,0.44 -4.97,0.77 -7.56,0.77 h -9.63 c -13.82,0 -26.1,-6.6 -33.86,-16.82 m -546.6,62.76 -1124.2,129.09 1134.29,-60.25 -10.09,-68.84"
         style="fill:#dbd0c5;fill-opacity:1;fill-rule:nonzero;stroke:none"
         id="path96" />
      <path
         d="m 8820.5,4186.13 v 0 l -0.85,56.51 v 0 l 0.85,-56.51"
         style="fill:#9872a1;fill-opacity:1;fill-rule:nonzero;stroke:none"
         id="path98" />
      <path
         d="m 8820.5,4186.13 -111.39,12.8 c 7.76,10.22 20.04,16.82 33.86,16.82 h 9.63 c 2.59,0 5.1,-0.33 7.56,-0.77 1.85,19.33 17.95,34.5 37.77,34.5 8.08,0 15.55,-2.55 21.72,-6.84 l 0.85,-56.51"
         style="fill:#ceb9a6;fill-opacity:1;fill-rule:nonzero;stroke:none"
         id="path100" />
      <path
         d="m 8401.23,4234.28 -238.72,27.41 10.09,68.84 198.22,-10.53 30.41,-85.72"
         style="fill:#3c3145;fill-opacity:1;fill-rule:nonzero;stroke:none"
         id="path102" />
      <path
         d="m 7238.12,3721.58 c -22.24,0 -40.26,18.03 -40.26,40.25 v 163.66 c 0,22.24 18.02,40.26 40.26,40.26 6.61,0 12.85,-1.6 18.36,-4.43 v -81.06 c -10.54,-2.55 -18.36,-12.03 -18.36,-23.35 v -135.33 0"
         style="fill:#e7cebb;fill-opacity:1;fill-rule:nonzero;stroke:none"
         id="path104" />
      <path
         d="m 7294.61,3767.47 c -2.91,0 -5.75,0.33 -8.47,0.95 v 88.49 c 0,13.26 -10.75,24.01 -24.01,24.01 -1.95,0 -3.84,-0.23 -5.65,-0.66 v 81.06 48.23 c 0,21.06 17.07,38.13 38.13,38.13 19.79,0 36.06,-15.08 37.95,-34.37 -19.96,-3.5 -35.13,-20.91 -35.13,-41.87 v -137.43 c 0,-13.56 6.36,-25.64 16.25,-33.42 v -28.02 c -5.61,-3.24 -12.12,-5.1 -19.07,-5.1"
         style="fill:#e7cebb;fill-opacity:1;fill-rule:nonzero;stroke:none"
         id="path106" />
      <path
         d="m 7361.7,3793.27 v 26.39 c 0,13.26 -10.75,24 -24.01,24 -13.26,0 -24.01,-10.74 -24.01,-24 v -19.07 c -9.89,7.78 -16.25,19.86 -16.25,33.42 v 137.43 c 0,20.96 15.17,38.37 35.13,41.87 2.4,0.42 4.86,0.63 7.38,0.63 h 9.62 c 23.48,0 42.5,-19.03 42.5,-42.5 v -137.43 c 0,-19.25 -12.8,-35.52 -30.36,-40.74"
         style="fill:#e7cebb;fill-opacity:1;fill-rule:nonzero;stroke:none"
         id="path108" />
      <path
         d="m 7262.13,3654.02 c -13.27,0 -24.01,10.75 -24.01,24.01 v 43.55 135.33 c 0,11.32 7.82,20.8 18.36,23.35 1.81,0.43 3.7,0.66 5.65,0.66 13.26,0 24.01,-10.75 24.01,-24.01 v -88.49 -90.39 c 0,-13.26 -10.75,-24.01 -24.01,-24.01"
         style="fill:#e7cebb;fill-opacity:1;fill-rule:nonzero;stroke:none"
         id="path110" />
      <path
         d="m 7337.69,3616.77 c -13.26,0 -24.01,10.74 -24.01,24.01 v 131.79 28.02 19.07 c 0,13.26 10.75,24 24.01,24 13.26,0 24.01,-10.74 24.01,-24 v -26.39 -152.49 c 0,-13.27 -10.75,-24.01 -24.01,-24.01"
         style="fill:#e7cebb;fill-opacity:1;fill-rule:nonzero;stroke:none"
         id="path112" />
      <path
         d="m 7729.03,3942.7 c -12.39,0 -22.43,10.03 -22.43,22.42 v 263.34 c 0,9.95 8.09,17.88 17.86,17.88 0.46,0 0.92,-0.01 1.38,-0.05 l 225.84,-17.21 c 9.33,-0.71 16.52,-8.48 16.52,-17.83 v -210 c 0,-19.96 -16.17,-36.13 -36.12,-36.13 -19.95,0 -36.13,16.17 -36.13,36.12 v 56.06 c 0,9.63 -7.81,17.44 -17.44,17.44 -9.63,0 -17.44,-7.81 -17.44,-17.44 v -1.81 c 0,-17.36 -11.62,-33.32 -28.65,-36.73 -2.53,-0.51 -5.03,-0.75 -7.47,-0.75 -19.95,0 -36.13,16.17 -36.13,36.12 v 30.42 c 0,9.92 -7.13,19.08 -17.01,19.94 -0.56,0.05 -1.12,0.07 -1.67,0.07 -10.32,0 -18.69,-8.37 -18.69,-18.69 v -119.65 c 0,-11.01 -7.41,-21.19 -18.24,-23.15 -1.42,-0.25 -2.81,-0.37 -4.18,-0.37"
         style="fill:#e7cebb;fill-opacity:1;fill-rule:nonzero;stroke:none"
         id="path114" />
      <path
         d="m 8808.88,4960.22 c 0,0 15.63,2118.73 -1579.41,1286.73 0,0 -489.34,-425.04 -408.57,-1498.88 1319.02,-193.16 1987.98,212.15 1987.98,212.15"
         style="fill:#c1d215;fill-opacity:1;fill-rule:nonzero;stroke:none"
         id="path116" />
      <path
         d="m 8798.73,7013.49 c 0,0 263.58,-1299.23 -1509.62,-1107.51 l -44.52,-403.81 c 0,0 -189.43,147.46 -226.48,-47.54 -37.09,-195.13 192.81,-94.23 192.81,-94.23 0,0 -162.65,-465.83 -390.02,-612.33 9.54,-15.11 -658.65,2059.3 150.64,1783.63 0,0 3.87,345.46 533.16,449.9 612.44,120.85 887.39,-604.02 1294.03,31.89"
         style="fill:#43374e;fill-opacity:1;fill-rule:nonzero;stroke:none"
         id="path118" />
      <path
         d="m 7801.86,5164.35 c 0,0 292.61,117.25 676.88,92.75 0,0 40.54,-320.83 -272.53,-374.92 -349.69,-60.45 -404.35,282.17 -404.35,282.17"
         style="fill:#43374e;fill-opacity:1;fill-rule:nonzero;stroke:none"
         id="path120" />
      <path
         d="m 7810.59,5371.7 -241.92,166.11 33.96,49.46 241.92,-166.12 -33.96,-49.45"
         style="fill:#43374e;fill-opacity:1;fill-rule:nonzero;stroke:none"
         id="path122" />
      <path
         d="m 7648.29,5341.55 -49.46,33.96 166.1,241.9 49.46,-33.95 -166.1,-241.91"
         style="fill:#43374e;fill-opacity:1;fill-rule:nonzero;stroke:none"
         id="path124" />
      <path
         d="m 8531.07,5517.22 -241.9,166.11 33.96,49.45 241.9,-166.11 -33.96,-49.45"
         style="fill:#43374e;fill-opacity:1;fill-rule:nonzero;stroke:none"
         id="path126" />
      <path
         d="m 8368.77,5487.07 -49.45,33.96 166.11,241.9 49.45,-33.96 -166.11,-241.9"
         style="fill:#43374e;fill-opacity:1;fill-rule:nonzero;stroke:none"
         id="path128" />
      <path
         d="m 6873.03,7646 c 0.01,-22.3 -3.76,-53.32 -11.32,-92.97 -4.42,-23.43 -11.97,-57.31 -22.63,-101.46 -9.64,-40.22 -14.6,-60.85 -14.84,-62.05 -0.27,-1.18 -0.4,-3.15 -0.4,-5.92 0,-3.87 0.65,-7.74 1.97,-11.63 0.51,-1.78 1.17,-3.58 1.94,-5.4 0,-1.67 -0.53,-3.41 -1.56,-5.26 -1.04,-1.84 -1.71,-3.14 -1.95,-3.92 -0.27,-0.77 -0.4,-1.99 -0.4,-3.64 0,-0.27 0.65,-4.57 1.97,-12.87 0.51,-3.16 0.77,-6.81 0.77,-10.96 -0.91,-0.35 -1.82,-0.7 -2.74,-1.05 -2.18,0.48 -4.1,2.09 -5.74,4.82 -1.64,2.73 -2.44,5.34 -2.45,7.83 0,0.56 1.3,2.74 3.9,6.56 1.31,1.92 1.95,3.99 1.95,6.2 0,4.43 -1.95,8.58 -5.85,12.55 -2.6,2.56 -7.03,5.82 -13.28,9.93 0,-7.75 -0.33,-16.39 -0.97,-25.92 -0.66,-9.53 -1.51,-15.27 -2.53,-17.21 -1.31,0.34 -2.61,0.68 -3.91,1.02 -1.82,3.26 -2.87,11.65 -3.12,25.16 -0.27,13.52 -1.31,27.46 -3.12,41.82 -0.53,4.31 -2.48,12.06 -5.86,23.32 -1.84,5.52 -3.65,11.06 -5.47,16.6 -3.38,13.23 -6.12,23.81 -8.2,31.69 -11.97,45.75 -19.26,72.64 -21.86,79.96 -1.83,-1.29 -5.34,-9.76 -10.54,-25.36 -6.25,-18.82 -9.38,-35.13 -9.38,-49.07 0,-2.24 0.82,-5.83 2.45,-10.76 1.61,-4.94 3.56,-10.49 5.8,-16.6 0.75,-3.62 1.13,-7.8 1.13,-12.53 0,-6.13 -0.55,-13.1 -1.61,-20.92 -1.07,-7.82 -1.97,-15.08 -2.68,-21.78 0.77,-5.31 1.68,-10.92 2.72,-16.88 1.04,-5.95 1.57,-11.43 1.57,-16.44 0,-0.56 0,-1.81 0,-3.76 0,-1.95 0,-4.45 0,-7.52 -1.43,0.24 -2.86,0.48 -4.29,0.73 -3.84,4.2 -6.77,7.54 -8.82,10 -6.39,8.03 -10.35,15.08 -11.88,21 0,5.3 0,10.6 0,15.9 1.95,-0.79 3.9,-1.58 5.86,-2.35 1.69,-3.74 3.38,-7.47 5.08,-11.19 1.82,2.64 3.05,6.56 3.71,11.75 0.64,5.19 0.96,11.12 0.96,17.81 -1.04,2.63 -1.81,4.59 -2.33,5.91 -2.34,-1.6 -3.66,-4.86 -3.91,-9.77 -0.26,-4.92 -0.53,-8.02 -0.77,-9.31 -1.31,0.51 -2.61,1.02 -3.92,1.54 -3.11,16.32 -9.3,29.11 -18.54,38.71 -9.24,9.61 -14.18,15.64 -14.84,17.76 -0.64,2.11 -0.97,4.71 -0.97,7.79 0,2.79 -0.07,5.56 -0.19,8.27 -0.14,2.73 -0.73,6.7 -1.75,11.94 -0.79,2.34 -3.78,14.77 -8.98,37.47 -5.22,22.71 -8.73,39.42 -10.55,50.02 -1.82,10.6 -5.73,28.71 -11.7,54.5 -6,25.79 -11.79,51.49 -17.38,77.03 -5.61,25.57 -8.39,40.68 -8.39,45.18 0,2.24 1.09,3.76 3.31,4.57 2.2,0.81 4.22,0.69 6.03,-0.36 10.41,-6.02 18.99,-20.09 25.74,-42.43 3.9,-13.27 7.8,-26.48 11.7,-39.65 4.17,-12.45 8.39,-26.14 12.66,-41.04 4.3,-14.91 7.36,-27.93 9.17,-39.09 0.91,-1.26 1.82,-2.51 2.73,-3.76 1.56,2.36 4.95,12.15 10.16,29.42 3.63,12.36 7.55,23.38 11.72,33.06 1.55,3.26 5.73,16.85 12.5,40.87 3.12,11.29 7.8,15.68 14.06,13.3 5.73,-2.17 13.02,-15.45 21.87,-39.58 7.8,-21.27 13.02,-39.13 15.63,-53.82 1.02,-5.87 4.94,-23.06 11.72,-51.36 2.08,-9.19 5.46,-22.91 10.15,-41.07 1.04,2.22 4.03,13.46 8.98,33.75 0,0.28 4.68,17.58 14.06,52.07 3.65,13.48 6.52,24.42 8.6,32.77 3.38,13.86 5.4,23.06 6.05,27.62 0.65,4.54 1.36,9.35 2.15,14.41 1.82,4.01 4.93,5.53 9.38,4.59 8.85,-1.87 14.97,-6.31 18.35,-13.54 2.08,-4.52 3.12,-11.17 3.12,-19.98 0,-2.34 0,-4.67 0,-7.02"
         style="fill:#83689a;fill-opacity:1;fill-rule:nonzero;stroke:none"
         id="path130" />
      <path
         d="m 7032.04,7312.32 c -0.39,-2.37 -0.78,-4.73 -1.17,-7.1 -2.34,-0.1 -4.68,-0.2 -7.02,-0.29 -2.61,4.89 -3.91,9.42 -3.91,13.55 0,1.67 0.26,3.13 0.78,4.38 0.53,1.26 1.56,3.45 3.13,6.54 1.3,0.05 2.6,0.1 3.9,0.15 2.08,-6.28 3.32,-10.36 3.71,-12.28 0.39,-1.91 0.59,-3.56 0.58,-4.95 z m 5.86,179.62 c 0,30.63 -2.21,57.36 -6.63,80.3 -5.47,27.81 -11.59,44.97 -18.36,51.49 -14.82,-15.45 -26.28,-39.46 -34.35,-72.4 -6.24,-25.38 -9.37,-48.14 -9.38,-68.31 0,-23.71 2.8,-40.47 8.4,-50.14 5.59,-9.67 14.25,-14.59 25.97,-14.53 12.75,0.08 22.12,10.01 28.11,29.47 4.16,13.7 6.24,28.41 6.24,44.12 z m 46.07,-3.18 c 0,-19.46 -3.92,-43.87 -11.72,-73.18 -3.9,-14.65 -5.84,-25.08 -5.84,-31.31 -0.27,-2.73 -0.53,-6 -0.79,-9.82 -0.27,-3.8 -0.38,-7.06 -0.39,-9.77 0,-3.25 0,-6.5 0,-9.75 0,-1.63 0.78,-4.95 2.35,-9.98 1.55,-5.02 2.35,-9.69 2.34,-14.02 0,-3.52 -0.52,-6 -1.57,-7.45 -1.03,-1.43 -3.25,-2.29 -6.63,-2.55 -3.38,-0.25 -6.12,2.13 -8.2,7.14 -2.09,5.02 -3.12,9.7 -3.12,14.04 2.59,6.94 4.42,12.62 5.46,17.02 3.91,14.63 5.86,28.05 5.86,40.24 0,2.3 0,4.6 0,6.91 0,1.89 0,3.25 0,4.06 -3.96,-3.76 -10.01,-9.69 -18.17,-17.66 -6.05,-5.69 -9.98,-9.7 -11.83,-12.07 -1.84,-2.37 -3.23,-5.04 -4.15,-8.05 -0.92,-2.99 -1.38,-5.99 -1.37,-8.96 0,-4.32 -0.01,-7.29 0,-8.91 0,-1.88 -0.19,-3.78 -0.54,-5.7 -0.37,-1.89 -1.75,-3.84 -4.15,-5.8 0,19.84 -7.35,29.57 -22.06,29.75 -14.71,0.2 -30,8.52 -45.88,25.18 -8.59,8.9 -16.33,23.32 -23.22,43.18 -6.9,19.87 -10.35,39.36 -10.35,58.25 -0.01,18.63 3.38,39.48 10.15,62.65 9.37,31.69 22.51,55.41 39.43,71.72 6.25,6.21 12.36,11.68 18.35,16.39 13.01,10.21 23.16,15.44 30.46,15.45 1.55,0 5.2,-5.44 10.93,-16.23 4.93,-9.17 10.4,-17.6 16.39,-25.26 2.86,-3.71 6.63,-10.14 11.32,-19.28 4.69,-9.13 8.21,-16.99 10.55,-23.62 6.75,-20.19 11.18,-36.14 13.27,-48.03 2.08,-11.87 3.12,-26.72 3.12,-44.58"
         style="fill:#83689a;fill-opacity:1;fill-rule:nonzero;stroke:none"
         id="path132" />
      <path
         d="m 7310.13,7361.73 c -1.05,-0.67 -2.09,-1.33 -3.14,-2 -2.08,1.6 -3.5,2.96 -4.29,4.09 -3.12,3.98 -4.69,8.51 -4.69,13.55 0.79,3.66 1.57,7.42 2.35,11.34 2.6,-2.27 4.3,-4.76 5.08,-7.48 2.34,-7.9 3.9,-12.28 4.69,-13.14 0,-2.12 0,-4.24 0,-6.36 z m -62.48,270.13 c 0,6.67 -2.08,10.86 -6.24,12.58 -4.16,1.72 -10.68,1.75 -19.52,0.14 -7.81,-1.42 -14.32,-3.48 -19.52,-6.22 -8.84,-4.7 -13.27,-10.76 -13.27,-18.26 0,-10.45 0.91,-21.83 2.73,-34.12 1.81,-12.3 3.13,-19.04 3.91,-20.24 6.77,4.63 13.52,9.43 20.3,14.43 21.08,16.44 31.61,33.85 31.61,51.69 z M 7193,7329.38 c -1.17,-0.22 -2.34,-0.44 -3.52,-0.66 -1.16,1.39 -2.33,2.78 -3.5,4.18 0,0.27 0.33,1.07 0.97,2.38 0.64,1.33 0.98,3.61 0.98,6.82 1.35,0.25 2.7,0.5 4.06,0.75 0.33,-4.49 0.67,-8.98 1.01,-13.47 z m -46.85,47.66 c 0,-1.61 -0.64,-3.71 -1.95,-6.33 -1.3,-2.62 -1.94,-5.13 -1.94,-7.56 0,-1.87 0.38,-4.38 1.17,-7.48 -0.92,-0.54 -1.83,-1.08 -2.74,-1.62 -2.08,-0.3 -3.46,0.78 -4.1,3.25 -0.65,2.47 -0.97,5.31 -0.97,8.54 0,1.89 0.38,4.09 1.16,6.63 1.83,6.18 2.73,12.36 2.74,18.55 2.08,-1.59 3.71,-3.44 4.88,-5.56 1.17,-2.12 1.75,-4.91 1.75,-8.42 z m 160.46,18.41 c -1.15,-0.55 -2.29,-1.11 -3.44,-1.66 -1.54,-0.39 -3,2.9 -4.39,9.86 -1.41,6.96 -2.36,10.89 -2.88,11.83 -2.81,-1.49 -4.85,-4.89 -6.12,-10.25 -1.27,-5.36 -1.91,-11.22 -1.9,-17.6 -0.01,-2.92 -0.01,-4.92 0,-5.98 0,-2.92 0,-5.85 0,-8.77 -1.57,1.48 -2.88,8.41 -3.91,20.78 -1.05,12.37 -2.21,19.2 -3.52,20.49 -2.61,0.98 -6.18,2.27 -10.74,3.87 -4.55,1.61 -9.83,4.28 -15.8,8.02 -7.03,4.32 -16.86,13.72 -29.48,28.44 -12.62,14.71 -20.88,24.4 -24.8,28.79 -0.91,-0.17 -1.81,-0.33 -2.72,-0.49 0,-13.93 0.45,-30.65 1.36,-50.17 0.91,-19.52 1.36,-33.42 1.36,-41.72 -0.26,-4.33 -0.64,-9.23 -1.17,-14.68 -0.51,-5.45 -1.95,-12.15 -4.29,-20.09 -4.16,2.17 -6.24,5.55 -6.24,10.1 0,1.88 0.32,4.56 0.97,8.02 0.65,3.47 0.98,5.48 0.98,6 0,4.03 -1.7,7.07 -5.07,9.15 -0.79,0.39 -3.01,0.67 -6.64,0.85 -3.65,0.18 -6.89,1.04 -9.77,2.58 -2.85,1.55 -5.6,4.12 -8.18,7.75 -3.41,5.11 -6.9,9.27 -10.55,12.5 -1.3,-0.74 -2.21,-1.4 -2.74,-2.01 -0.52,-0.63 -0.78,-2.68 -0.78,-6.17 -1.55,0.58 -3.06,1.23 -4.48,1.98 -1.44,0.74 -2.15,2.86 -2.15,6.35 0,16.15 0,37.01 0,62.58 0,25.57 0,46.57 0,62.98 -0.71,3.68 -1.98,6.68 -3.84,9.01 -1.88,2.32 -2.8,4.3 -2.8,5.91 3.65,3.14 6.9,10.01 9.76,20.61 2.87,10.59 4.29,23.95 4.29,40.09 0,1.34 0,2.69 0,4.03 -1.69,-0.21 -3.38,-0.43 -5.07,-0.64 -1.04,-4.96 -1.89,-10.32 -2.53,-16.05 -0.66,-5.74 -0.99,-12.1 -0.99,-19.1 -1.68,-0.61 -3.37,-1.22 -5.06,-1.82 -0.53,1.01 -1.12,2.28 -1.76,3.83 -0.66,1.54 -0.98,2.71 -0.98,3.52 0,24.51 1.68,40.18 5.08,47.05 6.24,6.65 11.7,12.57 16.39,17.75 3.12,3.09 4.94,5.82 5.46,8.18 0.52,2.34 0.78,4.6 0.78,6.75 1.31,1.52 3.13,2.44 5.47,2.75 1.3,0.18 3.71,0.11 7.22,-0.2 3.52,-0.3 6.31,-0.15 8.39,0.42 1.57,0.5 7.82,3.17 18.75,8.14 10.93,5 17.17,7.7 18.74,7.97 18.73,3.27 36.43,-2 53.1,-15.82 14.31,-11.64 21.46,-28.59 21.46,-51.18 -0.01,-19.65 -3.06,-35.76 -9.17,-48.29 -6.12,-12.52 -22.58,-29.59 -49.38,-50.44 20.81,-15.88 37.99,-30.78 51.53,-45.17 14.82,-15.66 22.25,-29.69 22.25,-42.43 0,-12.73 0,-25.46 0,-38.2"
         style="fill:#83689a;fill-opacity:1;fill-rule:nonzero;stroke:none"
         id="path134" />
      <path
         d="m 7526.13,7438.32 c 0,-4.17 -1.74,-6.78 -5.23,-7.85 -1.01,0.23 -1.62,0.42 -1.87,0.6 -1.25,0.93 -1.88,2.7 -1.88,5.3 0,1.82 0.39,4.54 1.13,8.15 0.75,3.61 1.5,6.31 2.24,8.1 2.24,-1.92 3.74,-4.2 4.5,-6.84 0.73,-2.63 1.11,-5.12 1.11,-7.46 z m -23.42,-5.57 c -1.27,-0.39 -2.54,-0.77 -3.81,-1.16 -0.42,3.92 -0.84,7.84 -1.26,11.76 1.41,-0.1 3.09,-0.76 5.07,-1.99 0,-2.87 0,-5.74 0,-8.61 z m 0,-23.85 c -1.3,-0.4 -2.6,-0.8 -3.9,-1.2 -0.78,1.98 -1.56,3.96 -2.34,5.94 0,0.78 0.32,2.39 0.97,4.79 0.64,2.42 1.11,4.05 1.37,4.92 1.3,0.4 2.6,0.79 3.9,1.19 0,-5.22 0,-10.43 0,-15.64 z m -13.27,185.86 c -0.39,-2.59 -0.78,-5.19 -1.17,-7.78 l -2.58,-0.75 c -0.98,1.02 -1.59,1.76 -1.83,2.22 -1.23,1.73 -1.84,3.26 -1.83,4.56 0.87,2.35 1.67,4.4 2.34,6.16 1.69,-1.47 3.38,-2.94 5.07,-4.41 z m 0,35.63 v -1.95 c -0.78,-5.46 -1.17,-8.83 -1.17,-10.13 0,-1.57 0,-3.92 0,-7.05 -2.22,-1.02 -4.43,-2.05 -6.64,-3.07 0.25,1.37 0.4,3.24 0.4,5.59 0,3.66 0,6.66 0,9.01 0,4.71 0.11,7.81 0.33,9.31 0.24,1.49 1.29,3.82 3.17,6.97 0.79,-1.34 1.62,-2.67 2.55,-3.98 0.9,-1.3 1.36,-2.88 1.36,-4.7 z m -77.7,-231.52 c -1.55,-0.85 -3.11,-1.7 -4.67,-2.54 -1.32,-0.39 -2.74,0.78 -4.31,3.48 -1.55,2.71 -2.34,5.24 -2.34,7.61 0,1.06 0.46,3.3 1.38,6.72 0.9,3.42 1.76,6.02 2.53,7.83 1.82,-1.58 3.19,-4.02 4.1,-7.3 0.91,-3.29 2.01,-6.98 3.31,-11.07 0,-1.58 0,-3.15 0,-4.73 z m 114.39,75.74 c -0.78,-2.05 -1.55,-4.23 -2.34,-6.56 -1.17,-0.35 -2.34,-0.7 -3.52,-1.06 -0.77,1.86 -1.41,3.74 -1.94,5.67 -1.82,2.57 -4.69,3.27 -8.59,2.1 -4.42,-1.33 -7.16,-3.59 -8.2,-6.77 -2.61,-7.3 -4.29,-11.59 -5.07,-12.87 0,12.01 -7.56,18.98 -22.65,21.04 -10.68,1.26 -19.52,4.95 -26.54,11.02 -11.46,9.5 -20.57,18.7 -27.33,27.56 -9.12,11.6 -15.1,17.84 -17.96,18.63 0,-5.7 0,-11.41 0,-17.11 1.3,-4.4 2.8,-14.99 4.49,-31.74 1.69,-16.76 2.54,-26.72 2.54,-29.9 0.51,-2.51 0.78,-4.54 0.77,-6.14 0.01,-2.91 -0.32,-5.38 -0.98,-7.43 -0.65,-2.04 -1.74,-4.21 -3.31,-6.52 -1.56,2.71 -3.32,4.57 -5.27,5.6 -1.95,1.02 -4.74,1.02 -8.39,-0.01 -16.92,-4.78 -28.12,4.43 -33.58,27.5 -3.38,14.11 -5.07,39.27 -5.07,75.42 -0.39,24.17 -0.78,48.34 -1.17,72.52 0,10.29 0.32,21.25 0.97,32.89 0.64,11.64 1.75,24.06 3.32,37.24 1.56,13.17 3.58,21.92 6.05,26.22 2.48,4.3 5.79,6.97 9.96,8.02 3.9,0.98 7.81,-1.48 11.71,-7.39 4.94,-7.91 7.43,-19.08 7.43,-33.56 -0.01,-10.28 0.19,-22.07 0.57,-35.4 0.39,-13.32 0.58,-20.78 0.58,-22.36 l 2.35,-1.74 c 7.8,15.24 14.64,28.52 20.5,39.82 5.85,11.3 13.73,24.59 23.62,39.86 3.64,6.76 6.63,11.76 8.98,15.03 7.03,10.29 13.27,16.17 18.73,17.67 6.51,1.77 11.73,-1.02 15.62,-8.4 3.91,-7.37 5.86,-16.5 5.86,-27.42 0,-13.51 0,-27.03 0,-40.55 -0.92,-1.43 -1.83,-2.85 -2.74,-4.28 -1.17,-0.33 -2.34,-0.66 -3.5,-0.99 -2.61,4.16 -3.91,8.57 -3.91,13.22 0,4.14 0,7.09 0,8.91 0,3.1 -0.76,5.72 -2.3,7.88 -2.57,-3.86 -4.73,-8.39 -6.52,-13.59 -4.87,-15.22 -8.97,-26.06 -12.28,-32.48 -6.15,-12.46 -11.39,-22.32 -15.73,-29.56 -5.13,-8.78 -7.68,-14.09 -7.68,-15.93 0,-1.3 5.38,-8.08 16.13,-20.21 10.75,-12.13 21.58,-24.17 32.46,-36.13 18.4,-19.16 29.81,-31.09 34.22,-36.03 6.48,-6.92 9.71,-14.14 9.71,-21.69"
         style="fill:#83689a;fill-opacity:1;fill-rule:nonzero;stroke:none"
         id="path136" />
      <path
         d="m 7625.8,7450.87 c -2.6,-3.35 -5.22,-5.42 -7.81,-6.19 -4.44,-1.31 -6.63,0.23 -6.63,4.62 -0.01,2.58 0.77,6.04 2.33,10.37 0.53,1.45 1.3,3.36 2.34,5.73 -1.55,0.84 -2.73,1.52 -3.5,2.06 -1.83,1.27 -2.74,4.1 -2.74,8.49 0,2.33 0.72,5.96 2.15,10.9 1.42,4.94 3.05,7.67 4.88,8.21 2.08,0.6 3.63,0.03 4.67,-1.73 1.05,-1.76 1.57,-4.06 1.57,-6.9 0,-7.48 -0.77,-13.13 -2.34,-16.94 -0.53,-1.18 -1.44,-2.49 -2.73,-3.9 1.03,-2.27 1.82,-3.97 2.35,-5.12 2.08,-4.02 3.89,-7.23 5.46,-9.6 z m 2.34,77.26 c 0.01,-5.41 -0.85,-10.24 -2.54,-14.46 -1.69,-4.23 -4.75,-6.99 -9.17,-8.28 -9.37,-2.73 -18.74,0.32 -28.11,9.21 -11.71,11.03 -17.56,27.58 -17.57,49.62 0.01,6.99 0.13,13.45 0.38,19.35 0.27,5.91 0.8,13.11 1.57,21.64 1.95,29.84 3.91,59.67 5.86,89.48 0,22.54 1.68,42.43 5.07,59.67 3.38,17.24 7.94,26.61 13.66,28.16 4.94,1.33 10.93,-5.14 17.96,-19.38 7.03,-14.26 10.55,-28.58 10.55,-43.03 0,-29.14 0.12,-52.46 0.38,-69.91 0.27,-17.47 0.64,-38.7 1.17,-63.69 0.53,-24.99 0.8,-44.45 0.79,-58.38"
         style="fill:#83689a;fill-opacity:1;fill-rule:nonzero;stroke:none"
         id="path138" />
      <path
         d="m 7716.49,7483.33 -1.17,-2.62 c -1.3,-0.35 -2.6,-0.69 -3.9,-1.04 0.39,3.69 0.78,7.38 1.17,11.07 1.82,-2.07 3.13,-4.56 3.9,-7.41 z m -1.17,16.19 c -2.08,-0.55 -4.16,-1.11 -6.24,-1.66 0,8.06 0,16.13 0,24.19 2.59,-2.38 4.1,-4.6 4.48,-6.69 0.4,-2.06 0.98,-4.15 1.76,-6.25 0,-3.2 0,-6.4 0,-9.59 z m -32.8,250.92 -2.33,-1.75 c -0.78,0.96 -1.56,1.91 -2.34,2.87 0,3.21 0,6.42 0,9.63 1.16,0.3 2.33,0.59 3.5,0.89 0.39,-3.89 0.78,-7.76 1.17,-11.64 z m 160.85,-178.65 c 0,-10.13 -1.3,-18.1 -3.91,-23.93 -2.6,-5.82 -3.89,-11.53 -3.89,-17.11 0.51,-1.92 0.9,-3.86 1.17,-5.84 1.55,-8.55 2.72,-16.81 3.51,-24.76 -2,-0.4 -4.01,-0.8 -6.02,-1.2 -1.5,2 -2.58,4.09 -3.19,6.26 -0.63,2.19 -0.93,4.56 -0.94,7.13 0,1.8 0.19,4.66 0.59,8.58 0.38,3.93 0.59,6.78 0.59,8.56 -0.01,9.36 -8.02,21.72 -24.03,36.83 -11.01,10.33 -19.55,21.27 -25.58,32.88 -2.9,5.71 -6.82,12.59 -11.82,20.6 -3.4,5.58 -6.75,11.12 -10.03,16.6 -3.29,5.48 -6.75,12.13 -10.43,19.93 -4.47,9.41 -8.01,15.19 -10.63,17.38 l -1.57,-2.67 c 1.74,-8.01 2.9,-14.75 3.48,-20.23 2.61,-17.75 3.93,-33.51 3.93,-47.28 -2.47,-32.37 -4.94,-64.76 -7.41,-97.18 0,-2.55 0.38,-4.75 1.17,-6.6 0.78,-1.84 2.86,-4.49 6.24,-7.98 0,-1.15 0,-2.3 0,-3.45 -1.3,-1.09 -2.61,-2.19 -3.91,-3.29 -3.65,-0.93 -6.18,0.52 -7.6,4.38 -1.44,3.84 -2.16,8.7 -2.16,14.57 0,6.13 0.06,9.98 0.21,11.55 0.11,1.57 0.44,2.93 0.96,4.08 -0.77,6.96 -2.13,11.6 -4.1,13.9 -1.94,2.31 -5.26,2.87 -9.94,1.66 -3.39,-0.89 -7.17,-2.39 -11.33,-4.52 -5.73,7.19 -9.9,12.74 -12.49,16.66 -5.22,7.32 -7.81,14.69 -7.81,22.14 0,15.13 0.2,32.3 0.59,51.52 0.39,19.21 0.58,30.09 0.58,32.66 1.04,4.89 1.9,10.87 2.54,17.97 0.64,7.08 0.98,14.22 0.98,21.4 0,10.26 0,20.51 0,30.77 1.3,10.84 2.6,21.67 3.9,32.5 0,4.53 -1.31,8.74 -3.9,12.62 -2.61,3.88 -5.35,5.46 -8.21,4.75 -1.3,-0.33 -2.6,-1.3 -3.89,-2.9 -4.17,3.63 -6.26,7.28 -6.26,10.95 0.78,2.55 1.29,4.37 1.56,5.48 1.55,4.05 2.84,6.2 3.88,6.46 1.02,0.26 2.32,0.04 3.87,-0.64 3.37,-1.57 8.4,-2.86 15.13,-3.88 1.02,2.09 2.01,5.16 2.9,9.19 0.9,4.04 2.78,6.41 5.62,7.09 5.69,1.36 10.59,-2.09 14.74,-10.31 2.84,-10.07 5.81,-19.98 8.92,-29.73 0.51,-1.16 3.74,-5.25 9.68,-12.29 2.84,-3.18 5.69,-7.25 8.53,-12.21 1.3,-2 6.34,-11.18 15.13,-27.55 12.92,-24.11 20.67,-37.82 23.26,-41.07 0,21.74 0,43.47 0,65.2 0,7.63 1.45,19.88 4.37,36.74 3.95,23.42 8.58,35.63 13.85,36.65 9.51,1.83 17.83,-25.48 24.97,-81.7 2.11,-16.6 4.62,-35.9 7.52,-57.91 1.58,-11.61 2.39,-19.06 2.39,-22.35 0,-2.8 -0.39,-5.39 -1.17,-7.82 1.82,-23.09 3.64,-46.17 5.46,-69.24"
         style="fill:#83689a;fill-opacity:1;fill-rule:nonzero;stroke:none"
         id="path140" />
      <path
         d="m 7979.34,7530.68 c 0,-2.49 0.13,-4.11 0.4,-4.83 l 0.77,-2.19 c -1.55,-1.37 -3.12,-2.88 -4.68,-4.51 -2.22,1.93 -4.43,3.86 -6.64,5.78 0,6.62 0,13.25 0,19.87 1.82,0.17 3.64,0.33 5.46,0.48 1.05,-1.65 2.08,-3.39 3.14,-5.17 1.03,-1.79 1.55,-4.94 1.55,-9.43 z m 137.04,97.22 c -1.43,-0.12 -2.86,-0.26 -4.29,-0.39 -4.95,0.37 -7.43,4.35 -7.43,12.01 -0.01,5.42 1.17,11.64 3.51,18.63 -1.31,0.83 -2.21,1.58 -2.72,2.23 -0.53,0.65 -1.83,1.06 -3.91,1.19 -7.03,-1.76 -12.37,-3.09 -16.01,-3.91 -11.71,-3.18 -18.6,-5.44 -20.69,-6.37 5.98,-7.8 8.99,-16.45 8.98,-25.85 0,-2.23 -0.71,-5.55 -2.15,-9.97 -1.43,-4.41 -2.93,-8.97 -4.48,-13.64 0,-3.22 1.42,-6.96 4.29,-11.24 6.5,-9.55 9.76,-15.74 9.76,-18.46 0,-4.45 -3,-6.57 -8.99,-6.43 -4.93,0.1 -8.39,2.31 -10.34,6.66 -1.94,4.36 -2.93,9.88 -2.93,16.57 0,4.71 0.19,8.68 0.59,11.89 0.4,3.22 0.85,5.95 1.36,8.17 -2.59,-1.96 -4.48,-5.78 -5.65,-11.48 -1.18,-5.7 -1.76,-12.64 -1.76,-20.82 0,-8.94 0.4,-17.74 1.17,-26.42 0.78,-8.68 1.57,-16.11 2.35,-22.31 -1.84,-0.25 -3.51,-0.62 -5.09,-1.13 -2.35,-0.01 -4.61,1.89 -6.82,5.7 -2.22,3.83 -3.33,7.85 -3.33,12.06 0,2.48 0.66,5.6 1.97,9.33 3.12,8.73 4.69,14.44 4.68,17.17 0,4.47 -2.02,8.87 -6.06,13.17 -4.03,4.3 -8.64,6.4 -13.86,6.27 -10.93,-2.4 -21.86,-4.99 -32.78,-7.77 -3.66,-0.73 -6.26,-1.15 -7.81,-1.26 -4.18,-0.28 -8.39,-0.16 -12.7,0.37 -4.29,0.52 -8.53,1.09 -12.69,1.7 -0.77,-0.07 -2.48,-3.1 -5.06,-9.11 -0.79,-1.83 -1.97,-4.82 -3.52,-8.99 0,-0.25 1.82,-2.19 5.46,-5.83 3.65,-3.64 5.47,-9.74 5.47,-18.24 -0.91,-2.71 -1.82,-5.42 -2.73,-8.14 -1.3,-0.13 -2.61,-0.26 -3.91,-0.39 -3.12,3.69 -5.27,7.28 -6.44,10.78 -1.17,3.51 -1.76,7.13 -1.76,10.89 0,2.51 0.39,5.81 1.17,9.89 0.79,4.1 1.18,7.01 1.17,8.76 0,2.26 -0.27,3.86 -0.78,4.8 -1.55,3.34 -4.55,6.41 -8.97,9.18 -14.31,9.18 -21.74,13.82 -22.25,14.27 -10.68,10.67 -18.1,21.8 -22.25,33.53 -4.18,11.73 -6.26,24.52 -6.26,38.36 0,11.83 2.53,25.49 7.6,40.89 5.06,15.4 13.96,35.19 26.69,59.04 12.71,23.83 25.58,42.62 38.56,56.39 12.99,13.76 24.41,20.7 34.29,21.02 13.24,0.43 27.13,-5 41.67,-16.32 17.16,-13.36 27.79,-30.1 31.95,-49.57 0.79,-4.24 1.17,-7.97 1.17,-11.19 0,-4.45 -0.4,-8.39 -1.21,-11.83 -0.81,-3.43 -1.45,-6.26 -1.91,-8.46 0,-3.23 1.5,-6.19 4.49,-8.91 2.98,-2.72 4.5,-5.59 4.49,-8.55 0,-2.73 -0.88,-5.28 -2.63,-7.68 -1.77,-2.4 -3.39,-3.57 -4.9,-3.52 -4.76,0.17 -8.16,1.81 -10.16,4.96 -2.01,3.15 -3.01,7.32 -3.01,12.52 0,4.97 0.75,10.65 2.24,17.05 0.21,0.99 0.63,2.34 1.28,4.05 0,4.21 -4.1,6.59 -12.31,6.97 -8.18,0.37 -15.41,4.96 -21.66,13.86 -5.2,7.67 -9.11,13.82 -11.7,18.5 -3.39,6.16 -6.64,12.43 -9.77,18.83 -2.09,-1.81 -7.94,-11.66 -17.57,-29.82 -12.49,-23.31 -22.38,-45.41 -29.66,-66.02 -10.42,-29.14 -15.62,-53.64 -15.62,-73.17 0.01,-9.03 2.86,-16.61 8.59,-22.81 5.73,-6.2 12.23,-8.98 19.52,-8.39 4.16,0.33 10.08,1.91 17.76,4.64 7.67,2.72 11.51,5.63 11.51,8.87 -5.2,4.47 -9.89,9.38 -14.05,14.74 -4.17,5.35 -6.25,10.75 -6.25,16.25 0,4.97 6.64,10.73 19.92,16.84 15.62,7.19 34.35,10.91 56.21,10.56 11.19,-0.18 22.26,-2.19 33.19,-6.01 17.18,-6.17 25.77,-14.56 25.77,-24.39 0,-11.59 0,-23.18 0,-34.77"
         style="fill:#83689a;fill-opacity:1;fill-rule:nonzero;stroke:none"
         id="path142" />
      <path
         d="m 8219.16,7603.19 c 0,-10.02 -1.83,-17.79 -5.47,-23.35 -4.67,-7.07 -12.24,-9.53 -22.63,-7.67 -11.99,2.13 -20.31,8.86 -25,20.59 -3.11,7.57 -4.68,17.48 -4.68,29.76 0,7.61 1.17,14.57 3.51,20.85 3.66,9.77 9.22,14.05 16.79,12.75 9.11,-1.59 18.09,-8.71 26.94,-21.33 7.03,-10.04 10.54,-20.62 10.54,-31.6"
         style="fill:#83689a;fill-opacity:1;fill-rule:nonzero;stroke:none"
         id="path144" />
      <path
         d="m 8321.57,7572.03 c 0.01,-9.92 -1.83,-17.3 -5.48,-22.21 -4.67,-6.22 -12.23,-7.42 -22.63,-3.91 -11.98,4.04 -20.31,11.98 -24.99,24.33 -3.11,7.97 -4.68,18.03 -4.68,30.19 -0.01,7.54 1.17,14.25 3.51,20.11 3.65,9.11 9.23,12.49 16.79,10 9.11,-3.01 18.09,-11.51 26.94,-25.46 7.03,-11.11 10.54,-22.17 10.54,-33.05"
         style="fill:#83689a;fill-opacity:1;fill-rule:nonzero;stroke:none"
         id="path146" />
      <path
         d="m 8423.98,7522.85 c 0,-9.83 -1.83,-16.78 -5.48,-20.95 -4.67,-5.28 -12.23,-5.03 -22.63,0.37 -11.98,6.2 -20.3,15.56 -24.99,28.62 -3.12,8.45 -4.69,18.69 -4.69,30.73 0,7.46 1.18,13.9 3.52,19.29 3.65,8.37 9.22,10.72 16.78,6.88 9.12,-4.64 18.1,-14.73 26.94,-30.21 7.03,-12.33 10.55,-23.97 10.55,-34.73"
         style="fill:#83689a;fill-opacity:1;fill-rule:nonzero;stroke:none"
         id="path148" />
      <path
         d="m 8841.88,8518.07 c 0.01,-23.47 -5.31,-56.25 -15.95,-97.52 -6.24,-24.35 -16.87,-59.41 -31.9,-104.01 -13.58,-40.58 -20.55,-60.87 -20.9,-62.1 -0.39,-1.17 -0.56,-3.19 -0.56,-6.03 0,-3.97 0.91,-8.05 2.75,-12.26 0.73,-1.91 1.66,-3.86 2.75,-5.87 0.01,-1.71 -0.74,-3.43 -2.21,-5.16 -1.46,-1.72 -2.39,-2.95 -2.73,-3.7 -0.39,-0.76 -0.56,-1.98 -0.56,-3.68 0,-0.29 0.91,-4.81 2.75,-13.58 0.73,-3.33 1.11,-7.13 1.1,-11.4 -1.28,-0.2 -2.57,-0.4 -3.85,-0.59 -3.09,0.89 -5.79,2.91 -8.09,6 -2.31,3.1 -3.47,5.92 -3.47,8.47 0,0.57 1.83,2.56 5.51,6.02 1.83,1.74 2.75,3.74 2.75,6.01 0,4.55 -2.75,9.15 -8.26,13.87 -3.66,3.05 -9.9,7.15 -18.69,12.4 0,-7.87 -0.47,-16.6 -1.38,-26.16 -0.93,-9.56 -2.12,-15.21 -3.57,-16.98 -1.84,0.6 -3.67,1.21 -5.51,1.83 -2.56,3.66 -4.04,12.37 -4.39,26.08 -0.38,13.72 -1.85,28.01 -4.41,42.83 -0.74,4.44 -3.49,12.61 -8.25,24.5 -2.57,5.87 -5.14,11.75 -7.71,17.61 -4.76,13.84 -8.61,24.85 -11.54,33.07 -16.88,47.59 -27.14,75.09 -30.8,82.71 -2.58,-1.02 -7.54,-8.92 -14.86,-23.41 -8.8,-17.47 -13.2,-32.8 -13.21,-46.44 0,-2.19 1.14,-5.86 3.43,-11.02 2.29,-5.18 5.03,-10.99 8.2,-17.47 1.04,-3.71 1.58,-7.89 1.58,-12.55 0,-6.02 -0.76,-12.77 -2.27,-20.21 -1.52,-7.44 -2.78,-14.36 -3.78,-20.77 1.1,-5.39 2.37,-11.12 3.84,-17.22 1.47,-6.09 2.21,-11.62 2.21,-16.55 0,-0.54 0,-1.77 0,-3.69 0,-1.91 0,-4.38 0,-7.39 -2.01,0.59 -4.03,1.19 -6.05,1.8 -5.4,5.11 -9.54,9.15 -12.42,12.07 -9.01,9.52 -14.59,17.43 -16.74,23.57 0,5.15 0,10.3 0,15.44 2.75,-1.27 5.5,-2.53 8.26,-3.77 2.38,-4.07 4.77,-8.13 7.15,-12.18 2.56,2.12 4.3,5.65 5.21,10.57 0.93,4.91 1.38,10.65 1.38,17.19 -1.47,2.82 -2.56,4.92 -3.3,6.32 -3.29,-1.02 -5.14,-3.88 -5.5,-8.62 -0.37,-4.73 -0.73,-7.69 -1.1,-8.89 -1.83,0.82 -3.66,1.64 -5.49,2.46 -4.42,16.67 -13.13,30.57 -26.14,42.13 -13.02,11.58 -19.99,18.66 -20.9,20.84 -0.91,2.2 -1.38,4.76 -1.38,7.71 0,2.67 -0.09,5.32 -0.28,7.95 -0.19,2.63 -1.01,6.59 -2.47,11.86 -1.1,2.4 -5.32,15.06 -12.64,37.89 -7.35,22.85 -12.3,39.47 -14.86,49.92 -2.58,10.44 -8.07,28.45 -16.51,54.01 -8.43,25.55 -16.59,50.82 -24.47,75.76 -7.9,24.96 -11.82,39.49 -11.83,43.65 0.01,2.08 1.56,3.27 4.66,3.6 3.12,0.32 5.97,-0.17 8.53,-1.48 14.65,-7.5 26.73,-22.05 36.25,-44.27 5.49,-13.18 10.99,-26.35 16.48,-39.51 5.86,-12.54 11.8,-26.3 17.86,-41.3 6.03,-15.01 10.34,-28.04 12.92,-39.11 1.28,-1.37 2.56,-2.74 3.84,-4.1 2.2,2 6.97,10.78 14.31,26.67 5.13,11.4 10.63,21.55 16.51,30.46 2.19,2.98 8.07,15.65 17.62,38.57 4.4,10.77 11,14.74 19.8,11.99 8.07,-2.52 18.35,-16.03 30.82,-40.65 11,-21.71 18.34,-40.01 22.02,-54.97 1.46,-5.99 6.98,-23.53 16.51,-52.75 2.93,-9.48 7.71,-23.68 14.31,-42.61 1.47,2.15 5.69,13.24 12.66,33.59 0,0.32 6.6,17.48 19.82,52.56 5.13,13.73 9.17,24.95 12.11,33.55 4.76,14.27 7.6,23.83 8.53,28.54 0.9,4.71 1.92,9.7 3.01,14.97 2.58,4.18 6.98,5.81 13.22,4.94 12.47,-1.73 21.09,-6.17 25.86,-13.68 2.94,-4.68 4.42,-11.66 4.41,-20.94 0.01,-2.46 0.01,-4.93 0,-7.39"
         style="fill:#83689a;fill-opacity:1;fill-rule:nonzero;stroke:none"
         id="path150" />
      <path
         d="m 9065.93,8148.56 c -0.55,-2.65 -1.1,-5.31 -1.65,-7.96 -3.3,0.09 -6.6,0.19 -9.9,0.3 -3.67,5.77 -5.5,10.99 -5.5,15.67 0,1.87 0.36,3.51 1.1,4.89 0.73,1.39 2.2,3.76 4.4,7.14 1.83,-0.05 3.67,-0.09 5.5,-0.13 2.93,-7.28 4.68,-12.02 5.22,-14.24 0.56,-2.2 0.84,-4.09 0.83,-5.67 z m 8.25,204.19 c 0,34.89 -3.12,65.31 -9.35,91.14 -7.7,31.29 -16.33,50.22 -25.85,57.06 -20.9,-18.53 -37.04,-45.92 -48.41,-82.61 -8.8,-28.28 -13.21,-53.32 -13.2,-75.57 0,-26.16 3.92,-44.7 11.82,-55.64 7.88,-10.92 20.08,-16.8 36.58,-17.16 17.97,-0.39 31.17,10.54 39.61,32.57 5.86,15.51 8.8,32.3 8.8,50.21 z m 64.91,-2.92 c 0,-22.65 -5.51,-51.18 -16.5,-84.95 -5.51,-16.88 -8.26,-28.84 -8.26,-36.03 -0.36,-3.14 -0.73,-6.91 -1.1,-11.29 -0.36,-4.39 -0.54,-8.14 -0.54,-11.27 0,-3.75 0,-7.5 0,-11.25 0,-1.88 1.1,-5.76 3.3,-11.66 2.19,-5.89 3.29,-11.35 3.29,-16.36 0,-4.07 -0.73,-6.89 -2.19,-8.49 -1.47,-1.58 -4.6,-2.42 -9.35,-2.47 -4.78,-0.04 -8.63,2.92 -11.56,8.81 -2.93,5.91 -4.39,11.34 -4.39,16.31 3.66,7.79 6.22,14.22 7.7,19.22 5.49,16.59 8.26,32 8.25,46.04 0,2.65 0,5.31 0,7.96 0,2.18 0,3.75 0,4.68 -5.57,-4.24 -14.11,-10.87 -25.59,-19.66 -8.53,-6.27 -14.1,-10.64 -16.69,-13.24 -2.59,-2.59 -4.54,-5.57 -5.84,-8.93 -1.3,-3.34 -1.95,-6.7 -1.95,-10.08 0.01,-4.89 0.01,-8.25 0,-10.09 0,-2.14 -0.25,-4.27 -0.76,-6.42 -0.5,-2.12 -2.44,-4.23 -5.83,-6.29 0,22.46 -10.37,33.86 -31.09,34.94 -20.72,1.13 -42.27,11.49 -64.64,30.77 -12.1,10.32 -23.01,26.53 -32.72,48.42 -9.73,21.9 -14.58,42.99 -14.58,63.34 0,20.07 4.77,42.42 14.3,67.57 13.22,34.37 31.71,60.75 55.56,79.84 8.8,7.26 17.41,13.78 25.86,19.51 18.33,12.42 32.63,19.33 42.9,20.05 2.21,0.16 7.34,-5.61 15.41,-17.31 6.96,-9.94 14.66,-19.06 23.1,-27.32 4.03,-4 9.36,-11.05 15.95,-21.19 6.61,-10.14 11.56,-18.97 14.86,-26.47 9.53,-22.87 15.75,-41.21 18.7,-54.93 2.93,-13.72 4.4,-30.98 4.4,-51.76"
         style="fill:#83689a;fill-opacity:1;fill-rule:nonzero;stroke:none"
         id="path152" />
      <path
         d="m 9457.76,8190.72 c -1.46,-0.79 -2.93,-1.58 -4.39,-2.36 -2.95,2.18 -4.95,4.01 -6.05,5.51 -4.42,5.32 -6.61,11.2 -6.61,17.65 1.1,4.63 2.2,9.44 3.3,14.41 3.67,-3.03 6.05,-6.31 7.15,-9.85 3.31,-10.28 5.51,-16 6.6,-17.16 0,-2.74 0,-5.47 0,-8.2 z m -88.02,342.12 c 0,8.35 -2.93,13.38 -8.79,15.11 -5.87,1.72 -15.05,1.04 -27.51,-1.89 -11,-2.59 -20.17,-5.83 -27.51,-9.74 -12.46,-6.7 -18.71,-14.53 -18.7,-23.69 0,-12.76 1.28,-26.57 3.85,-41.45 2.56,-14.89 4.4,-23.07 5.51,-24.49 9.53,6.11 19.06,12.49 28.6,19.14 29.72,21.84 44.55,44.64 44.55,67.01 z m -77.01,-375.42 c -1.65,-0.2 -3.3,-0.39 -4.95,-0.58 -1.65,1.77 -3.3,3.54 -4.95,5.31 0,0.33 0.46,1.28 1.38,2.86 0.91,1.57 1.37,4.33 1.38,8.25 1.91,0.23 3.81,0.46 5.72,0.69 0.48,-5.51 0.95,-11.02 1.42,-16.53 z m -66,60.01 c 0.01,-1.93 -0.93,-4.44 -2.76,-7.51 -1.84,-3.08 -2.75,-6.05 -2.75,-8.95 0,-2.25 0.56,-5.25 1.66,-9.02 -1.29,-0.6 -2.57,-1.2 -3.86,-1.8 -2.94,-0.26 -4.86,1.11 -5.78,4.08 -0.91,2.97 -1.36,6.38 -1.36,10.23 0,2.25 0.54,4.86 1.64,7.85 2.55,7.3 3.85,14.65 3.85,22.05 2.93,-1.97 5.23,-4.22 6.88,-6.79 1.65,-2.57 2.48,-5.94 2.48,-10.14 z m 226.08,16.87 c -1.61,-0.66 -3.23,-1.32 -4.85,-1.98 -2.15,-0.42 -4.21,3.86 -6.19,12.83 -1.98,8.97 -3.33,14.04 -4.05,15.26 -3.95,-1.82 -6.83,-6.11 -8.62,-12.91 -1.79,-6.79 -2.69,-14.25 -2.68,-22.38 0,-3.73 0,-6.26 0,-7.63 0,-3.72 0,-7.45 0,-11.18 -2.21,1.97 -4.04,10.87 -5.51,26.66 -1.46,15.81 -3.12,24.53 -4.95,26.2 -3.68,1.32 -8.72,3.05 -15.14,5.2 -6.41,2.15 -13.83,5.63 -22.28,10.44 -9.9,5.54 -23.74,17.49 -41.52,35.72 -17.8,18.22 -29.43,29.94 -34.94,35.24 -1.28,-0.22 -2.56,-0.44 -3.84,-0.65 0.01,-17.07 0.63,-37.54 1.92,-61.48 1.28,-23.93 1.91,-41.02 1.92,-51.19 -0.37,-5.3 -0.91,-11.29 -1.64,-17.96 -0.74,-6.66 -2.76,-14.82 -6.05,-24.42 -5.88,2.86 -8.8,7.08 -8.8,12.63 0,2.3 0.45,5.54 1.37,9.75 0.91,4.21 1.38,6.65 1.38,7.29 -0.01,4.92 -2.4,8.69 -7.16,11.32 -1.1,0.51 -4.23,0.91 -9.35,1.24 -5.15,0.32 -9.73,1.47 -13.75,3.41 -4.04,1.95 -7.91,5.13 -11.56,9.56 -4.76,6.24 -9.71,11.31 -14.84,15.25 -1.85,-0.86 -3.12,-1.65 -3.85,-2.37 -0.75,-0.74 -1.11,-3.19 -1.1,-7.37 -2.21,0.73 -4.32,1.54 -6.33,2.46 -2.02,0.91 -3.03,3.45 -3.03,7.63 0,19.29 0,44.19 0,74.72 0,30.53 0,55.6 0,75.2 -0.99,4.35 -2.79,7.86 -5.42,10.54 -2.63,2.66 -3.93,4.96 -3.93,6.88 5.12,3.95 9.72,12.34 13.76,25.21 4.02,12.87 6.05,29.01 6.05,48.34 0,1.61 0,3.23 0,4.84 -2.39,-0.42 -4.78,-0.84 -7.17,-1.25 -1.47,-6.04 -2.64,-12.5 -3.57,-19.41 -0.91,-6.89 -1.38,-14.52 -1.38,-22.87 -2.38,-0.86 -4.76,-1.71 -7.15,-2.55 -0.73,1.16 -1.56,2.64 -2.47,4.42 -0.91,1.79 -1.38,3.16 -1.38,4.12 0.01,29.14 2.39,47.95 7.17,56.47 8.79,8.57 16.48,16.26 23.09,23.02 4.4,4.06 6.97,7.56 7.71,10.46 0.71,2.89 1.1,5.64 1.1,8.23 1.83,1.98 4.4,3.31 7.69,3.99 1.83,0.37 5.23,0.58 10.18,0.64 4.95,0.07 8.89,0.59 11.84,1.55 2.19,0.81 11,4.8 26.39,12.29 15.41,7.5 24.22,11.69 26.41,12.22 26.4,6.48 51.34,2.33 74.81,-13.24 20.17,-13.07 30.25,-34.08 30.25,-62.93 0,-25.12 -4.3,-45.91 -12.92,-62.22 -8.63,-16.26 -31.81,-38.88 -69.59,-65.86 29.34,-18.98 53.54,-37.51 72.63,-55.76 20.9,-19.87 31.34,-38.12 31.34,-54.5 0,-16.37 0,-32.74 0,-49.12"
         style="fill:#83689a;fill-opacity:1;fill-rule:nonzero;stroke:none"
         id="path154" />
      <path
         d="m 9762.14,8278.07 c 0,-5.86 -2.47,-9.4 -7.38,-10.58 -1.4,0.4 -2.28,0.74 -2.64,1.02 -1.75,1.41 -2.63,3.94 -2.63,7.59 0,2.57 0.53,6.35 1.58,11.37 1.05,5.02 2.11,8.76 3.16,11.22 3.17,-2.87 5.28,-6.21 6.33,-9.99 1.04,-3.78 1.59,-7.32 1.58,-10.63 z m -33,-5.81 c -1.79,-0.44 -3.58,-0.87 -5.37,-1.31 -0.6,5.5 -1.2,10.99 -1.79,16.49 1.99,-0.24 4.38,-1.29 7.16,-3.16 0,-4.01 0,-8.01 0,-12.02 z m 0,-33.33 c -1.83,-0.43 -3.67,-0.86 -5.51,-1.29 -1.1,2.83 -2.19,5.66 -3.29,8.49 0,1.09 0.45,3.3 1.37,6.61 0.92,3.31 1.55,5.55 1.92,6.72 1.84,0.44 3.68,0.88 5.51,1.32 0,-7.28 0,-14.57 0,-21.85 z m -18.71,259.48 c -0.55,-3.61 -1.1,-7.22 -1.65,-10.82 -1.21,-0.36 -2.41,-0.71 -3.62,-1.06 -1.39,1.4 -2.26,2.41 -2.59,3.04 -1.72,2.39 -2.59,4.49 -2.6,6.3 1.26,3.26 2.37,6.12 3.32,8.58 2.38,-2.01 4.76,-4.02 7.14,-6.04 z m 0,49.51 c 0,-1.09 0,-2 0,-2.73 -1.09,-7.59 -1.65,-12.29 -1.65,-14.1 0,-2.17 0,-5.44 0,-9.78 -3.12,-1.48 -6.23,-2.96 -9.35,-4.44 0.36,1.91 0.55,4.5 0.54,7.76 0,5.06 0,9.23 0,12.48 0.01,6.51 0.17,10.81 0.5,12.91 0.33,2.09 1.82,5.35 4.46,9.79 1.1,-1.83 2.28,-3.64 3.57,-5.42 1.29,-1.77 1.94,-3.95 1.93,-6.47 z m -109.46,-315.13 c -2.21,-1.03 -4.41,-2.06 -6.61,-3.09 -1.84,-0.41 -3.86,1.25 -6.05,4.99 -2.2,3.72 -3.29,7.17 -3.29,10.35 0,1.41 0.62,4.37 1.91,8.89 1.28,4.52 2.48,7.97 3.58,10.35 2.56,-2.23 4.47,-5.57 5.77,-10.04 1.29,-4.46 2.84,-9.49 4.69,-15.08 0,-2.13 0,-4.24 0,-6.37 z m 161.17,96.49 c -1.09,-2.85 -2.19,-5.88 -3.29,-9.1 -1.65,-0.41 -3.3,-0.83 -4.95,-1.25 -1.11,2.66 -2.03,5.36 -2.76,8.1 -2.57,3.74 -6.6,4.9 -12.1,3.49 -6.24,-1.59 -10.09,-4.58 -11.55,-8.96 -3.68,-10.03 -6.06,-15.89 -7.15,-17.63 0,16.74 -10.65,26.94 -31.91,30.49 -15.04,2.26 -27.5,7.67 -37.41,16.19 -16.14,13.34 -28.97,25.95 -38.51,37.96 -12.83,15.73 -21.26,24.02 -25.3,25.05 0,-7.64 0,-15.27 0,-22.91 1.83,-5.91 3.94,-20.11 6.33,-42.62 2.37,-22.52 3.57,-35.94 3.57,-40.21 0.74,-3.38 1.1,-6.14 1.1,-8.28 0.01,-3.92 -0.47,-7.23 -1.37,-9.94 -0.93,-2.71 -2.48,-5.57 -4.68,-8.59 -2.2,3.71 -4.67,6.29 -7.42,7.75 -2.76,1.45 -6.7,1.56 -11.84,0.34 -23.84,-5.63 -39.59,7.01 -47.3,37.4 -4.77,18.62 -7.15,51.61 -7.15,99.03 -0.55,31.7 -1.1,63.38 -1.65,95.06 -0.01,13.5 0.45,27.88 1.37,43.22 0.9,15.32 2.49,31.71 4.68,49.18 2.2,17.48 5.03,29.22 8.52,35.18 3.49,5.97 8.16,9.9 14.03,11.79 5.5,1.77 11.01,-1.02 16.5,-8.42 6.97,-9.94 10.46,-24.61 10.46,-43.92 0,-13.69 0.28,-29.41 0.82,-47.15 0.55,-17.75 0.83,-27.67 0.83,-29.78 1.1,-0.73 2.2,-1.46 3.3,-2.19 11,20.82 20.62,39.12 28.87,54.78 8.27,15.66 19.35,34.25 33.28,55.92 5.14,9.53 9.36,16.65 12.66,21.33 9.91,14.74 18.71,23.48 26.41,26.09 9.16,3.1 16.49,-0.24 22,-10.09 5.5,-9.86 8.25,-22.39 8.25,-37.55 0,-18.77 0,-37.54 0,-56.31 -1.29,-2.02 -2.57,-4.05 -3.85,-6.07 -1.65,-0.52 -3.3,-1.03 -4.96,-1.55 -3.66,5.64 -5.49,11.66 -5.49,18.09 0,5.71 0,9.82 0,12.31 0.01,4.29 -1.09,7.86 -3.23,10.74 -3.63,-5.5 -6.68,-11.9 -9.2,-19.18 -6.86,-21.28 -12.63,-36.35 -17.3,-45.33 -8.66,-17.37 -16.04,-31.02 -22.17,-41.05 -7.2,-12.14 -10.81,-19.41 -10.81,-21.89 0.01,-1.8 7.57,-10.78 22.74,-27.19 15.14,-16.44 30.39,-33.04 45.73,-49.8 25.93,-26.89 42,-44.3 48.21,-51.44 9.12,-10.05 13.7,-20.45 13.69,-31.09"
         style="fill:#83689a;fill-opacity:1;fill-rule:nonzero;stroke:none"
         id="path156" />
      <path
         d="m 9902.58,8286.03 c -3.69,-4.61 -7.34,-7.33 -11,-8.16 -6.24,-1.41 -9.36,1.09 -9.36,7.5 0,3.77 1.09,8.74 3.31,14.91 0.72,2.06 1.83,4.77 3.29,8.12 -2.2,1.38 -3.85,2.5 -4.95,3.38 -2.58,2.04 -3.85,6.26 -3.85,12.65 0,3.4 1.01,8.64 3.03,15.72 2.01,7.09 4.31,10.95 6.87,11.57 2.93,0.72 5.12,-0.26 6.61,-2.94 1.45,-2.67 2.19,-6.08 2.19,-10.26 0.01,-10.96 -1.09,-19.18 -3.29,-24.6 -0.75,-1.69 -2.03,-3.5 -3.85,-5.44 1.45,-3.43 2.55,-6.02 3.29,-7.74 2.94,-6.14 5.49,-11.03 7.71,-14.71 z m 3.29,113.33 c 0,-7.95 -1.2,-14.99 -3.57,-21.06 -2.39,-6.08 -6.7,-9.88 -12.93,-11.41 -13.2,-3.26 -26.4,1.96 -39.6,15.42 -16.51,16.73 -24.75,40.72 -24.75,72.36 0,10.05 0.17,19.31 0.54,27.8 0.36,8.47 1.1,18.83 2.19,31.07 2.76,42.89 5.51,85.86 8.27,128.91 -0.01,32.47 2.38,61.23 7.14,86.38 4.77,25.15 11.18,39.16 19.25,41.92 6.98,2.37 15.42,-6.48 25.31,-26.8 9.91,-20.33 14.86,-41.24 14.86,-62.44 0,-42.81 0.18,-77.04 0.54,-102.69 0.37,-25.66 0.9,-56.86 1.66,-93.61 0.73,-36.76 1.1,-65.38 1.09,-85.85"
         style="fill:#83689a;fill-opacity:1;fill-rule:nonzero;stroke:none"
         id="path158" />
      <path
         d="m 10030.4,8323.73 c -0.6,-1.28 -1.1,-2.55 -1.7,-3.83 -1.8,-0.36 -3.7,-0.73 -5.5,-1.1 0.6,5.56 1.1,11.12 1.7,16.68 2.5,-3.37 4.4,-7.29 5.5,-11.75 z m -1.7,24.79 c -2.9,-0.6 -5.9,-1.21 -8.8,-1.81 0,12.24 0,24.48 0,36.72 3.7,-3.87 5.8,-7.42 6.3,-10.61 0.6,-3.19 1.4,-6.43 2.5,-9.71 0,-4.86 0,-9.73 0,-14.59 z m -46.2,380.56 c -1.1,-0.91 -2.2,-1.82 -3.3,-2.73 -1.1,1.4 -2.2,2.79 -3.31,4.19 0,4.81 0,9.62 0,14.43 1.65,0.51 3.3,1.02 4.95,1.52 0.56,-5.8 1.11,-11.61 1.66,-17.41 z m 226.6,-281.32 c 0,-16.2 -1.8,-28.81 -5.5,-37.84 -3.6,-9.01 -5.5,-17.97 -5.5,-26.85 0.8,-3.13 1.3,-6.29 1.7,-9.47 2.2,-13.85 3.8,-27.19 4.9,-39.99 -2.8,-0.36 -5.6,-0.72 -8.4,-1.09 -2.2,3.39 -3.7,6.87 -4.5,10.41 -0.9,3.57 -1.4,7.39 -1.4,11.47 0,2.86 0.3,7.39 0.9,13.59 0.5,6.2 0.8,10.71 0.8,13.55 0,14.89 -11.3,35.58 -33.8,60.92 -15.6,17.33 -27.6,35.13 -36.1,53.68 -4.1,9.11 -9.6,20.09 -16.7,32.84 -4.8,8.86 -9.5,17.59 -14.1,26.22 -4.6,8.63 -9.5,19.02 -14.7,31.17 -6.3,14.63 -11.3,23.58 -15,26.98 -0.7,-1.36 -1.5,-2.72 -2.2,-4.08 2.5,-12.32 4.1,-22.72 4.9,-31.15 3.7,-27.36 5.6,-51.7 5.6,-72.91 -3.5,-49.69 -7,-99.28 -10.5,-148.76 0,-3.91 0.6,-7.33 1.7,-10.26 1.1,-2.93 4,-7.26 8.8,-13.05 0,-1.77 0,-3.53 0,-5.3 -1.9,-1.53 -3.7,-3.04 -5.5,-4.56 -5.2,-0.96 -8.8,1.59 -10.8,7.66 -2,6.08 -3,13.61 -3,22.6 0,9.4 0.1,15.28 0.3,17.66 0.2,2.39 0.6,4.44 1.4,6.15 -1.1,10.74 -3.1,17.97 -5.8,21.69 -2.8,3.72 -7.4,4.88 -14,3.46 -4.8,-1.02 -10.1,-2.97 -16,-5.81 -8.1,11.43 -13.9,20.16 -17.59,26.28 -7.36,11.45 -11.02,22.72 -11.02,33.92 0.01,22.77 0.29,48.6 0.84,77.5 0.54,28.9 0.81,45.3 0.82,49.16 1.46,7.33 2.64,16.35 3.57,27.04 0.91,10.68 1.38,21.43 1.38,32.26 0,15.46 0,30.92 0,46.38 1.83,16.38 3.67,32.78 5.5,49.19 0,6.84 -1.84,13.12 -5.5,18.83 -3.66,5.72 -7.51,7.95 -11.56,6.69 -1.83,-0.56 -3.66,-2.1 -5.49,-4.59 -5.88,5.23 -8.8,10.54 -8.8,16.02 1.1,3.86 1.81,6.63 2.18,8.31 2.18,6.17 4.01,9.49 5.46,9.95 1.45,0.47 3.28,0.25 5.46,-0.67 4.74,-2.12 11.84,-3.71 21.35,-4.83 1.4,3.22 2.8,7.94 4.1,14.1 1.2,6.18 3.9,9.89 7.9,11.13 8,2.49 14.9,-2.38 20.7,-14.69 4.1,-15.18 8.2,-30.16 12.6,-44.95 0.7,-1.75 5.3,-7.86 13.7,-18.48 4,-4.78 8,-10.96 12,-18.54 1.8,-3.07 8.9,-17.04 21.3,-42.38 18.2,-37.36 29.1,-59.08 32.8,-64.21 0,34.01 0,68.01 0,102.02 0,11.93 2,31.11 6.1,57.64 5.6,36.84 12.1,56.32 19.6,58.23 13.4,3.43 25.1,-39.18 35.1,-128.61 3,-26.4 6.6,-57.17 10.6,-92.37 2.3,-18.58 3.4,-30.53 3.4,-35.79 0,-4.45 -0.6,-8.59 -1.7,-12.41 2.6,-36.96 5.2,-73.98 7.7,-111.06"
         style="fill:#83689a;fill-opacity:1;fill-rule:nonzero;stroke:none"
         id="path160" />
      <path
         d="m 10400.7,8365.54 c 0,-4.2 0.2,-6.94 0.6,-8.2 0.4,-1.25 0.7,-2.51 1.1,-3.77 -2.2,-2.12 -4.4,-4.47 -6.6,-7.02 -3.1,3.52 -6.2,7.03 -9.4,10.52 0,11.12 0,22.23 0,33.34 2.6,0.08 5.2,0.15 7.8,0.21 1.4,-2.9 2.9,-5.91 4.3,-9.04 1.5,-3.13 2.2,-8.47 2.2,-16.04 z m 193.1,158.93 c -2,-0.22 -4,-0.45 -6,-0.68 -7,0.71 -10.5,7.76 -10.5,21.27 0,9.57 1.7,20.52 5,32.88 -1.9,1.47 -3.1,2.77 -3.9,3.92 -0.7,1.15 -2.5,1.85 -5.5,2.07 -9.9,-3.15 -17.4,-5.5 -22.5,-6.92 -16.5,-5.53 -26.2,-9.31 -29.2,-10.9 8.4,-13.68 12.7,-28.83 12.7,-45.23 0,-3.88 -1,-9.65 -3.1,-17.31 -2,-7.64 -4.1,-15.51 -6.3,-23.57 0,-5.6 2,-12.18 6.1,-19.77 9.1,-17 13.7,-28.03 13.7,-32.77 0,-7.8 -4.2,-11.31 -12.6,-10.67 -7,0.52 -11.9,4.6 -14.6,12.29 -2.8,7.7 -4.1,17.34 -4.1,28.95 0,8.16 0.2,15.03 0.8,20.6 0.6,5.55 1.2,10.27 1.9,14.1 -3.7,-3.28 -6.3,-9.82 -8,-19.63 -1.6,-9.81 -2.4,-21.79 -2.4,-35.95 0,-15.46 0.5,-30.72 1.6,-45.83 1.1,-15.09 2.2,-28.05 3.3,-38.87 -2.6,-0.24 -4.9,-0.73 -7.1,-1.45 -3.3,0.21 -6.6,3.73 -9.7,10.54 -3.1,6.82 -4.6,13.83 -4.6,21.11 0,4.28 0.9,9.58 2.7,15.93 4.4,14.78 6.6,24.54 6.6,29.25 0,7.72 -2.8,15.47 -8.5,23.16 -5.7,7.67 -12.2,11.58 -19.5,11.7 -15.4,-3.37 -30.9,-6.97 -46.3,-10.81 -5.1,-0.93 -8.7,-1.43 -11,-1.48 -5.8,-0.13 -11.8,0.43 -17.8,1.68 -6.1,1.25 -12,2.57 -17.9,3.95 -1.1,-0.05 -3.5,-4.99 -7.2,-14.79 -1.1,-2.97 -2.7,-7.87 -4.9,-14.67 0,-0.41 2.5,-3.82 7.7,-10.28 5.1,-6.46 7.7,-16.85 7.7,-31.1 -1.3,-4.44 -2.6,-8.87 -3.9,-13.31 -1.8,-0.06 -3.6,-0.12 -5.5,-0.19 -4.4,6.53 -7.4,12.76 -9,18.73 -1.7,5.98 -2.5,12.08 -2.5,18.34 0,4.18 0.5,9.63 1.6,16.36 1.1,6.74 1.7,11.57 1.7,14.49 0,3.75 -0.4,6.45 -1.1,8.07 -2.2,5.71 -6.4,11.1 -12.7,16.07 -20.1,16.45 -30.6,24.64 -31.3,25.43 -15.1,18.42 -25.5,37.11 -31.4,56.53 -5.9,19.39 -8.8,40.3 -8.8,62.87 0,19.27 3.6,41.44 10.7,66.56 7.2,25.13 19.7,57.51 37.6,97.23 18,39.71 36.1,71.69 54.4,95.64 18.3,23.94 34.4,36.71 48.3,38.13 18.6,1.91 38.2,-5.98 58.7,-24.16 24.2,-21.43 39.2,-49.62 45,-83.28 1.1,-7.35 1.7,-13.82 1.7,-19.43 0,-7.77 -0.6,-14.68 -1.7,-20.7 -1.2,-6.04 -2.1,-10.99 -2.7,-14.87 0,-5.61 2.1,-10.69 6.3,-15.3 4.2,-4.61 6.3,-9.53 6.3,-14.72 0,-4.76 -1.2,-9.27 -3.7,-13.52 -2.5,-4.26 -4.8,-6.36 -6.9,-6.32 -6.7,0.14 -11.5,2.88 -14.3,8.28 -2.8,5.4 -4.2,12.6 -4.2,21.63 0,8.6 1,18.48 3.1,29.69 0.3,1.71 0.9,4.08 1.8,7.1 0,7.31 -5.8,11.19 -17.3,11.4 -11.6,0.19 -21.7,7.77 -30.5,22.69 -7.4,12.85 -12.9,23.13 -16.6,30.97 -4.7,10.3 -9.3,20.76 -13.7,31.43 -2.9,-3.22 -11.2,-20.46 -24.7,-51.66 -17.6,-40.01 -31.6,-77.27 -41.9,-111.75 -14.6,-48.74 -22,-89.18 -22,-121.66 0,-14.99 4.1,-27.73 12.1,-38.4 8.1,-10.67 17.3,-15.75 27.5,-15.21 5.9,0.31 14.2,2.6 25.1,6.79 10.8,4.17 16.2,8.94 16.2,14.45 -7.3,7.84 -13.9,16.35 -19.8,25.57 -5.9,9.21 -8.8,18.38 -8.8,27.64 0,8.4 9.3,17.87 28,28.02 22,11.94 48.5,18.27 79.3,17.83 15.7,-0.23 31.3,-3.56 46.7,-10.04 24.2,-10.48 36.3,-25.13 36.3,-42.56 0,-20.52 0,-41.05 0,-61.58"
         style="fill:#83689a;fill-opacity:1;fill-rule:nonzero;stroke:none"
         id="path162" />
      <path
         d="m 10738.7,8482.07 c 0,-18.42 -2.6,-32.78 -7.7,-43.13 -6.6,-13.13 -17.3,-17.81 -31.9,-14.51 -16.9,3.78 -28.7,16.01 -35.3,37.14 -4.4,13.64 -6.6,31.46 -6.6,53.58 0.1,13.69 1.7,26.25 5,37.66 5.1,17.73 13,25.77 23.7,23.83 12.8,-2.35 25.4,-14.69 37.9,-37.21 9.9,-17.94 14.9,-37.17 14.9,-57.36"
         style="fill:#83689a;fill-opacity:1;fill-rule:nonzero;stroke:none"
         id="path164" />
      <path
         d="m 10883,8433.97 c 0,-18.92 -2.6,-33.26 -7.7,-43.08 -6.6,-12.46 -17.3,-15.6 -31.9,-9.98 -16.9,6.45 -28.6,20.76 -35.3,43.45 -4.3,14.66 -6.5,33.29 -6.5,56.02 -0.1,14.06 1.6,26.73 4.9,37.95 5.1,17.46 13,24.54 23.7,20.93 12.8,-4.35 25.4,-18.97 37.9,-44.05 9.9,-19.97 14.9,-40.51 14.9,-61.24"
         style="fill:#83689a;fill-opacity:1;fill-rule:nonzero;stroke:none"
         id="path166" />
      <path
         d="m 11027.3,8360.47 c 0,-19.41 -2.6,-33.68 -7.7,-42.86 -6.7,-11.62 -17.3,-13 -32,-4.72 -16.8,9.51 -28.6,26.16 -35.2,50.55 -4.4,15.78 -6.6,35.28 -6.6,58.6 0,14.44 1.7,27.17 5,38.15 5.1,17.06 13,23.01 23.6,17.5 12.9,-6.65 25.5,-23.84 38,-51.76 9.9,-22.23 14.8,-44.19 14.9,-65.46"
         style="fill:#83689a;fill-opacity:1;fill-rule:nonzero;stroke:none"
         id="path168" />
      <path
         d="m 9524.68,7278.42 c 0,-14.51 -3.28,-34.78 -9.86,-60.29 -3.86,-15.05 -10.43,-36.73 -19.72,-64.3 -8.39,-25.09 -12.69,-37.64 -12.93,-38.39 -0.22,-0.73 -0.34,-1.97 -0.34,-3.72 0.01,-2.47 0.57,-4.99 1.7,-7.59 0.45,-1.18 1.03,-2.4 1.7,-3.63 0,-1.05 -0.45,-2.12 -1.36,-3.18 -0.9,-1.07 -1.47,-1.84 -1.7,-2.3 -0.22,-0.46 -0.34,-1.22 -0.34,-2.28 0.01,-0.17 0.57,-2.96 1.7,-8.38 0.46,-2.06 0.69,-4.42 0.69,-7.05 l -2.39,-0.37 c -1.9,0.56 -3.57,1.8 -4.99,3.7 -1.44,1.92 -2.15,3.66 -2.14,5.24 0,0.36 1.13,1.59 3.4,3.73 1.12,1.08 1.69,2.31 1.69,3.71 0,2.82 -1.7,5.67 -5.09,8.58 -2.27,1.88 -6.13,4.41 -11.57,7.67 -0.01,-4.87 -0.28,-10.27 -0.85,-16.18 -0.58,-5.9 -1.31,-9.4 -2.22,-10.5 -1.13,0.38 -2.26,0.75 -3.4,1.13 -1.58,2.27 -2.49,7.65 -2.72,16.13 -0.22,8.48 -1.13,17.32 -2.71,26.48 -0.46,2.74 -2.16,7.8 -5.11,15.15 -1.59,3.63 -3.16,7.25 -4.76,10.88 -2.95,8.56 -5.33,15.36 -7.14,20.44 -10.42,29.42 -16.78,46.42 -19.04,51.13 -1.6,-0.62 -4.66,-5.51 -9.18,-14.46 -5.45,-10.81 -8.16,-20.29 -8.16,-28.72 0,-1.35 0.69,-3.62 2.12,-6.81 1.41,-3.19 3.1,-6.8 5.06,-10.8 0.66,-2.29 0.97,-4.87 0.98,-7.75 -0.01,-3.73 -0.47,-7.89 -1.41,-12.5 -0.93,-4.6 -1.72,-8.87 -2.33,-12.85 0.67,-3.32 1.46,-6.86 2.37,-10.64 0.91,-3.77 1.37,-7.18 1.37,-10.22 0,-0.34 0,-1.1 0,-2.29 0,-1.19 0,-2.7 0,-4.57 -1.25,0.37 -2.49,0.74 -3.74,1.12 -3.33,3.15 -5.9,5.64 -7.69,7.46 -5.55,5.88 -9.01,10.77 -10.34,14.57 0,3.18 0,6.36 0,9.54 1.7,-0.78 3.4,-1.56 5.1,-2.33 1.47,-2.51 2.95,-5.02 4.42,-7.53 1.58,1.32 2.67,3.5 3.24,6.53 0.56,3.05 0.84,6.59 0.85,10.63 -0.91,1.74 -1.61,3.04 -2.04,3.91 -2.05,-0.63 -3.18,-2.4 -3.41,-5.32 -0.22,-2.94 -0.46,-4.76 -0.68,-5.51 -1.13,0.51 -2.26,1.02 -3.39,1.53 -2.73,10.3 -8.12,18.89 -16.16,26.04 -8.06,7.17 -12.36,11.54 -12.92,12.88 -0.58,1.37 -0.84,2.95 -0.85,4.77 0,1.65 -0.06,3.29 -0.18,4.92 -0.11,1.63 -0.63,4.07 -1.52,7.32 -0.7,1.49 -3.3,9.32 -7.82,23.44 -4.54,14.12 -7.6,24.4 -9.19,30.85 -1.6,6.46 -4.99,17.59 -10.21,33.39 -5.21,15.8 -10.26,31.42 -15.13,46.84 -4.87,15.43 -7.32,24.41 -7.31,26.99 0,1.29 0.96,2.01 2.89,2.22 1.91,0.2 3.69,-0.11 5.27,-0.92 9.06,-4.63 16.53,-13.63 22.41,-27.37 3.39,-8.14 6.79,-16.28 10.18,-24.42 3.63,-7.75 7.31,-16.26 11.05,-25.54 3.74,-9.27 6.4,-17.33 7.98,-24.17 l 2.37,-2.53 c 1.37,1.23 4.31,6.66 8.85,16.49 3.18,7.04 6.58,13.31 10.21,18.82 1.36,1.85 4.99,9.68 10.89,23.85 2.72,6.66 6.81,9.11 12.24,7.42 4.99,-1.57 11.35,-9.93 19.06,-25.14 6.8,-13.42 11.34,-24.73 13.61,-33.98 0.91,-3.7 4.31,-14.55 10.21,-32.61 1.82,-5.87 4.76,-14.64 8.85,-26.35 0.9,1.33 3.51,8.19 7.82,20.77 0,0.2 4.09,10.81 12.26,32.49 3.16,8.5 5.67,15.43 7.49,20.75 2.94,8.81 4.7,14.73 5.27,17.63 0.55,2.92 1.18,6 1.86,9.26 1.6,2.59 4.31,3.6 8.17,3.06 7.7,-1.07 13.04,-3.82 16,-8.46 1.8,-2.89 2.71,-7.21 2.71,-12.94 0,-1.53 0,-3.05 0,-4.57"
         style="fill:#83689a;fill-opacity:1;fill-rule:nonzero;stroke:none"
         id="path170" />
      <path
         d="m 9663.2,7049.99 c -0.34,-1.64 -0.68,-3.29 -1.02,-4.93 -2.04,0.06 -4.08,0.12 -6.12,0.19 -2.27,3.57 -3.4,6.79 -3.4,9.69 -0.01,1.15 0.22,2.16 0.67,3.01 0.46,0.86 1.36,2.33 2.73,4.42 1.13,-0.03 2.26,-0.06 3.4,-0.08 1.82,-4.5 2.88,-7.44 3.23,-8.8 0.34,-1.37 0.5,-2.53 0.51,-3.5 z m 5.11,126.22 c 0,21.57 -1.95,40.38 -5.79,56.35 -4.76,19.34 -10.09,31.04 -15.98,35.27 -12.93,-11.45 -22.91,-28.38 -29.93,-51.07 -5.44,-17.48 -8.15,-32.96 -8.16,-46.72 0,-16.17 2.43,-27.64 7.31,-34.39 4.86,-6.75 12.41,-10.38 22.62,-10.61 11.11,-0.24 19.26,6.52 24.48,20.14 3.63,9.58 5.45,19.96 5.45,31.03 z m 40.12,-1.8 c 0,-14 -3.4,-31.64 -10.2,-52.51 -3.39,-10.44 -5.11,-17.83 -5.11,-22.28 -0.22,-1.94 -0.45,-4.26 -0.67,-6.98 -0.23,-2.72 -0.34,-5.04 -0.34,-6.97 0,-2.32 0,-4.64 0,-6.95 0,-1.16 0.67,-3.56 2.04,-7.21 1.35,-3.64 2.03,-7.02 2.03,-10.11 0,-2.52 -0.45,-4.27 -1.35,-5.25 -0.92,-0.99 -2.84,-1.5 -5.78,-1.53 -2.94,-0.03 -5.33,1.8 -7.15,5.45 -1.82,3.65 -2.71,7 -2.71,10.08 2.26,4.82 3.85,8.79 4.76,11.88 3.4,10.26 5.09,19.78 5.1,28.46 0,1.64 0,3.29 0,4.93 0,1.35 0,2.31 0,2.89 -3.44,-2.62 -8.72,-6.73 -15.82,-12.15 -5.27,-3.89 -8.72,-6.58 -10.32,-8.19 -1.61,-1.61 -2.8,-3.44 -3.61,-5.52 -0.81,-2.07 -1.2,-4.14 -1.2,-6.23 0,-3.03 0,-5.11 0,-6.24 0,-1.33 -0.17,-2.64 -0.47,-3.97 -0.32,-1.31 -1.51,-2.62 -3.61,-3.89 0,13.89 -6.41,20.93 -19.21,21.6 -12.82,0.7 -26.14,7.1 -39.97,19.02 -7.48,6.39 -14.23,16.41 -20.23,29.93 -6.02,13.55 -9.01,26.58 -9.02,39.17 0,12.4 2.95,26.22 8.85,41.76 8.16,21.26 19.62,37.57 34.35,49.36 5.43,4.5 10.77,8.52 15.98,12.06 11.34,7.68 20.17,11.95 26.53,12.4 1.36,0.1 4.53,-3.47 9.52,-10.7 4.31,-6.15 9.07,-11.79 14.28,-16.89 2.5,-2.47 5.78,-6.83 9.86,-13.1 4.09,-6.27 7.15,-11.72 9.19,-16.37 5.88,-14.13 9.74,-25.47 11.55,-33.95 1.82,-8.48 2.72,-19.16 2.73,-32"
         style="fill:#83689a;fill-opacity:1;fill-rule:nonzero;stroke:none"
         id="path172" />
      <path
         d="m 9905.43,7076.05 c -0.9,-0.49 -1.81,-0.98 -2.72,-1.46 -1.82,1.35 -3.06,2.48 -3.74,3.41 -2.73,3.28 -4.09,6.92 -4.08,10.91 0.68,2.86 1.36,5.83 2.05,8.91 2.26,-1.88 3.74,-3.91 4.41,-6.1 2.05,-6.34 3.41,-9.89 4.08,-10.61 0,-1.69 0,-3.38 0,-5.06 z m -54.41,211.5 c 0,5.16 -1.83,8.27 -5.44,9.34 -3.63,1.06 -9.3,0.64 -17.01,-1.17 -6.79,-1.6 -12.46,-3.59 -17,-6.02 -7.71,-4.15 -11.56,-8.98 -11.56,-14.64 0,-7.89 0.79,-16.43 2.39,-25.63 1.58,-9.2 2.71,-14.26 3.4,-15.14 5.89,3.78 11.77,7.72 17.68,11.83 18.37,13.51 27.54,27.6 27.54,41.43 z m -47.61,-232.09 c -1.02,-0.12 -2.04,-0.24 -3.06,-0.36 -1.02,1.1 -2.05,2.19 -3.07,3.29 0.01,0.2 0.3,0.79 0.85,1.76 0.58,0.98 0.86,2.68 0.86,5.11 1.18,0.14 2.36,0.28 3.54,0.43 0.29,-3.41 0.59,-6.82 0.88,-10.23 z m -40.81,37.11 c 0,-1.2 -0.58,-2.75 -1.7,-4.65 -1.13,-1.91 -1.7,-3.74 -1.7,-5.54 0,-1.39 0.34,-3.24 1.03,-5.57 l -2.39,-1.11 c -1.82,-0.16 -3.01,0.68 -3.56,2.52 -0.57,1.84 -0.86,3.94 -0.87,6.32 0,1.39 0.36,3 1.03,4.85 1.58,4.51 2.39,9.06 2.38,13.64 1.81,-1.22 3.23,-2.62 4.25,-4.2 1.02,-1.59 1.53,-3.68 1.53,-6.26 z m 139.77,10.42 c -1,-0.41 -2,-0.82 -3,-1.23 -1.33,-0.26 -2.61,2.39 -3.82,7.94 -1.24,5.54 -2.05,8.68 -2.51,9.43 -2.43,-1.12 -4.22,-3.78 -5.33,-7.98 -1.12,-4.2 -1.65,-8.81 -1.66,-13.83 0,-2.31 0,-3.88 0,-4.72 0,-2.3 0,-4.61 0,-6.91 -1.35,1.21 -2.51,6.72 -3.39,16.48 -0.91,9.77 -1.94,15.16 -3.07,16.2 -2.27,0.81 -5.39,1.88 -9.36,3.21 -3.96,1.33 -8.56,3.48 -13.76,6.46 -6.13,3.42 -14.68,10.81 -25.68,22.08 -11.01,11.27 -18.2,18.51 -21.6,21.78 l -2.38,-0.4 c -0.01,-10.55 0.39,-23.21 1.2,-38 0.79,-14.8 1.19,-25.36 1.18,-31.65 -0.22,-3.28 -0.57,-6.98 -1.02,-11.11 -0.45,-4.12 -1.7,-9.16 -3.73,-15.1 -3.64,1.77 -5.45,4.38 -5.45,7.82 0,1.41 0.28,3.42 0.84,6.02 0.58,2.6 0.85,4.11 0.85,4.51 0,3.04 -1.46,5.37 -4.4,7 -0.69,0.31 -2.61,0.56 -5.79,0.76 -3.18,0.2 -6,0.91 -8.5,2.11 -2.5,1.2 -4.88,3.18 -7.15,5.91 -2.94,3.86 -6,6.99 -9.18,9.43 -1.13,-0.53 -1.92,-1.02 -2.37,-1.47 -0.46,-0.45 -0.69,-1.97 -0.69,-4.56 -1.37,0.45 -2.67,0.96 -3.91,1.52 -1.25,0.57 -1.87,2.15 -1.87,4.73 0,11.92 0,27.31 0,46.19 0,18.87 0,34.37 0,46.49 -0.61,2.69 -1.72,4.86 -3.35,6.51 -1.63,1.65 -2.43,3.07 -2.43,4.26 3.18,2.43 6.01,7.62 8.5,15.58 2.49,7.96 3.74,17.93 3.75,29.89 0,0.99 0,1.99 0,2.99 -1.48,-0.26 -2.95,-0.52 -4.43,-0.77 -0.9,-3.74 -1.66,-7.74 -2.21,-12 -0.57,-4.27 -0.85,-8.98 -0.85,-14.14 -1.47,-0.53 -2.95,-1.06 -4.42,-1.58 -0.46,0.72 -0.97,1.63 -1.53,2.74 -0.57,1.09 -0.85,1.95 -0.85,2.54 0,18.01 1.47,29.64 4.41,34.91 5.45,5.3 10.21,10.06 14.3,14.23 2.71,2.51 4.3,4.68 4.76,6.47 0.44,1.79 0.67,3.48 0.68,5.08 1.12,1.23 2.72,2.05 4.76,2.47 1.12,0.23 3.24,0.37 6.29,0.4 3.05,0.04 5.49,0.36 7.31,0.96 1.37,0.5 6.79,2.96 16.32,7.59 9.52,4.64 14.97,7.24 16.32,7.56 16.34,4.01 31.74,1.44 46.26,-8.18 12.46,-8.08 18.71,-21.07 18.71,-38.91 0,-15.53 -2.66,-28.39 -8,-38.47 -5.34,-10.05 -19.68,-24.03 -43.02,-40.71 18.13,-11.73 33.1,-23.19 44.89,-34.47 12.92,-12.28 19.38,-23.57 19.38,-33.7 0,-10.12 0,-20.24 0,-30.36"
         style="fill:#83689a;fill-opacity:1;fill-rule:nonzero;stroke:none"
         id="path174" />
      <path
         d="m 10093.6,7130.05 c 0,-3.63 -1.5,-5.81 -4.6,-6.54 l -1.6,0.63 c -1.1,0.87 -1.6,2.44 -1.6,4.69 0,1.59 0.3,3.93 1,7.03 0.6,3.1 1.3,5.42 1.9,6.94 2,-1.78 3.3,-3.84 3.9,-6.18 0.7,-2.34 1,-4.52 1,-6.57 z m -20.4,-3.59 c -1.1,-0.27 -2.2,-0.54 -3.3,-0.8 -0.4,3.39 -0.8,6.78 -1.1,10.18 1.2,-0.15 2.7,-0.8 4.4,-1.95 0,-2.48 0,-4.96 0,-7.43 z m 0,-20.61 c -1.1,-0.27 -2.3,-0.53 -3.4,-0.8 -0.7,1.75 -1.4,3.51 -2,5.26 0,0.67 0.2,2.03 0.8,4.08 0.6,2.04 1,3.43 1.2,4.16 1.1,0.27 2.3,0.54 3.4,0.81 0,-4.5 0,-9.01 0,-13.51 z m -11.6,160.41 c -0.3,-2.23 -0.7,-4.46 -1,-6.68 l -2.2,-0.66 -1.6,1.88 c -1.1,1.48 -1.6,2.77 -1.6,3.89 0.7,2.02 1.4,3.79 2,5.3 1.5,-1.24 3,-2.48 4.4,-3.73 z m 0,30.61 v -1.68 c -0.7,-4.7 -1,-7.6 -1,-8.72 0,-1.35 0,-3.36 0,-6.06 -1.9,-0.91 -3.8,-1.82 -5.8,-2.73 0.3,1.18 0.4,2.79 0.4,4.8 0,3.12 0,5.7 0,7.71 0,4.03 0.1,6.69 0.3,7.98 0.2,1.29 1.1,3.3 2.7,6.06 0.7,-1.14 1.4,-2.26 2.2,-3.35 0.8,-1.1 1.2,-2.45 1.2,-4.01 z m -67.65,-194.82 c -1.36,-0.63 -2.72,-1.27 -4.08,-1.9 -1.13,-0.26 -2.38,0.77 -3.74,3.08 -1.36,2.31 -2.04,4.44 -2.03,6.39 0,0.87 0.39,2.71 1.18,5.5 0.79,2.81 1.53,4.93 2.21,6.4 1.59,-1.37 2.77,-3.44 3.58,-6.2 0.79,-2.77 1.74,-5.88 2.88,-9.33 0.01,-1.31 0.01,-2.62 0,-3.94 z m 99.65,59.65 c -0.7,-1.75 -1.4,-3.63 -2,-5.61 -1.1,-0.26 -2.1,-0.52 -3.1,-0.78 -0.7,1.65 -1.2,3.31 -1.7,5.01 -1.6,2.31 -4.1,3.03 -7.5,2.16 -3.8,-0.99 -6.2,-2.84 -7.1,-5.54 -2.3,-6.2 -3.8,-9.83 -4.4,-10.9 0,10.35 -6.6,16.65 -19.8,18.84 -9.3,1.4 -17,4.74 -23.1,10.02 -10,8.24 -17.9,16.04 -23.8,23.46 -7.94,9.72 -13.14,14.85 -15.64,15.49 0,-4.72 0,-9.44 0,-14.17 1.13,-3.65 2.43,-12.42 3.91,-26.34 1.47,-13.93 2.2,-22.23 2.2,-24.86 0.45,-2.09 0.69,-3.8 0.69,-5.12 -0.01,-2.42 -0.3,-4.46 -0.85,-6.15 -0.58,-1.67 -1.54,-3.45 -2.91,-5.31 -1.34,2.3 -2.87,3.89 -4.58,4.79 -1.7,0.9 -4.14,0.97 -7.31,0.22 -14.73,-3.48 -24.49,4.32 -29.25,23.11 -2.94,11.52 -4.41,31.91 -4.41,61.23 -0.34,19.59 -0.68,39.18 -1.03,58.76 0.01,8.34 0.29,17.24 0.85,26.72 0.56,9.47 1.53,19.61 2.89,30.4 1.36,10.81 3.12,18.06 5.27,21.76 2.16,3.68 5.04,6.11 8.68,7.28 3.39,1.1 6.8,-0.63 10.2,-5.21 4.3,-6.14 6.46,-15.2 6.47,-27.14 -0.01,-8.46 0.16,-18.19 0.51,-29.15 0.34,-10.97 0.49,-17.12 0.49,-18.41 l 2.06,-1.36 c 6.79,12.87 12.73,24.19 17.84,33.87 5.12,9.68 11.92,21.17 20.62,34.57 3.1,5.89 5.7,10.29 7.8,13.18 6.1,9.11 11.5,14.52 16.3,16.13 5.7,1.92 10.2,-0.13 13.6,-6.24 3.4,-6.09 5.1,-13.84 5.1,-23.21 0,-11.6 0,-23.2 0,-34.81 -0.8,-1.25 -1.6,-2.5 -2.4,-3.75 -1,-0.32 -2,-0.64 -3,-0.96 -2.3,3.48 -3.4,7.21 -3.4,11.18 0,3.53 0,6.07 0,7.62 0,2.64 -0.7,4.86 -2,6.63 -2.3,-3.4 -4.2,-7.35 -5.7,-11.85 -4.2,-13.16 -7.8,-22.48 -10.7,-28.02 -5.4,-10.74 -9.9,-19.19 -13.7,-25.38 -4.5,-7.51 -6.7,-12 -6.7,-13.54 0,-1.11 4.7,-6.66 14,-16.81 9.4,-10.16 18.9,-20.42 28.3,-30.78 16.1,-16.63 26,-27.39 29.8,-31.81 5.7,-6.2 8.5,-12.63 8.5,-19.22"
         style="fill:#83689a;fill-opacity:1;fill-rule:nonzero;stroke:none"
         id="path176" />
      <path
         d="m 10180.4,7134.97 c -2.2,-2.85 -4.5,-4.53 -6.8,-5.04 -3.8,-0.88 -5.8,0.67 -5.8,4.63 0,2.33 0.7,5.4 2.1,9.21 0.4,1.28 1.1,2.96 2,5.03 -1.3,0.86 -2.4,1.55 -3,2.08 -1.6,1.26 -2.4,3.87 -2.4,7.84 0,2.08 0.6,5.33 1.8,9.71 1.3,4.38 2.7,6.77 4.3,7.15 1.8,0.44 3.2,-0.16 4.1,-1.82 0.9,-1.65 1.3,-3.76 1.3,-6.33 0,-6.79 -0.6,-11.86 -2,-15.22 -0.5,-1.04 -1.3,-2.15 -2.4,-3.36 0.9,-2.13 1.6,-3.72 2.1,-4.79 1.8,-3.79 3.4,-6.82 4.7,-9.09 z m 2.1,70.06 c -0.1,-4.92 -0.8,-9.27 -2.3,-13.02 -1.4,-3.76 -4.1,-6.11 -7.9,-7.06 -8.2,-2.01 -16.4,1.22 -24.5,9.54 -10.2,10.34 -15.3,25.17 -15.3,44.74 0,6.21 0.1,11.94 0.3,17.18 0.2,5.24 0.7,11.64 1.4,19.21 1.7,26.52 3.4,53.08 5.1,79.69 0,20.07 1.4,37.85 4.4,53.4 2.9,15.55 6.9,24.22 11.9,25.91 4.3,1.47 9.5,-4.01 15.6,-16.56 6.2,-12.57 9.2,-25.49 9.2,-38.6 0,-26.47 0.1,-47.62 0.4,-63.48 0.2,-15.87 0.5,-35.14 1,-57.87 0.4,-22.73 0.7,-40.42 0.7,-53.08"
         style="fill:#83689a;fill-opacity:1;fill-rule:nonzero;stroke:none"
         id="path178" />
      <path
         d="m 10259.4,7158.28 -1,-2.37 c -1.1,-0.23 -2.3,-0.45 -3.4,-0.68 0.3,3.43 0.7,6.87 1,10.3 1.6,-2.07 2.7,-4.5 3.4,-7.25 z m -1,15.32 c -1.8,-0.37 -3.6,-0.75 -5.5,-1.12 0,7.56 0,15.13 0,22.7 2.3,-2.39 3.6,-4.58 4,-6.56 0.3,-1.96 0.8,-3.97 1.5,-5.99 0,-3.01 0,-6.02 0,-9.03 z m -28.6,235.26 -2,-1.69 -2.1,2.6 c 0,2.97 0,5.95 0,8.92 1.1,0.32 2.1,0.63 3.1,0.94 0.3,-3.59 0.7,-7.18 1,-10.77 z m 140.1,-173.91 c 0,-10.01 -1.1,-17.81 -3.4,-23.39 -2.2,-5.58 -3.4,-11.11 -3.4,-16.6 0.5,-1.94 0.8,-3.89 1,-5.86 1.4,-8.56 2.4,-16.8 3.1,-24.72 -1.7,-0.22 -3.5,-0.45 -5.2,-0.68 -1.3,2.11 -2.3,4.26 -2.8,6.44 -0.6,2.21 -0.8,4.58 -0.8,7.09 0,1.77 0.1,4.57 0.5,8.4 0.3,3.84 0.5,6.63 0.5,8.38 0,9.2 -7,21.99 -20.9,37.66 -9.6,10.71 -17.1,21.72 -22.3,33.19 -2.5,5.63 -6,12.42 -10.3,20.3 -3,5.48 -5.9,10.88 -8.8,16.22 -2.8,5.33 -5.8,11.75 -9,19.26 -3.9,9.04 -7,14.58 -9.3,16.68 l -1.4,-2.52 c 1.6,-7.62 2.6,-14.04 3.1,-19.26 2.3,-16.92 3.4,-31.96 3.4,-45.07 -2.2,-30.72 -4.3,-61.38 -6.5,-91.97 0,-2.42 0.4,-4.53 1.1,-6.34 0.6,-1.81 2.5,-4.49 5.4,-8.06 0,-1.1 0,-2.19 0,-3.28 -1.2,-0.95 -2.3,-1.89 -3.4,-2.82 -3.2,-0.6 -5.4,0.98 -6.6,4.73 -1.3,3.76 -1.9,8.42 -1.9,13.97 0,5.81 0,9.45 0.2,10.92 0.1,1.48 0.4,2.74 0.8,3.81 -0.7,6.64 -1.8,11.1 -3.6,13.4 -1.7,2.3 -4.5,3.02 -8.6,2.14 -3,-0.63 -6.3,-1.83 -9.9,-3.59 -5,7.07 -8.6,12.47 -10.9,16.25 -4.5,7.08 -6.8,14.04 -6.8,20.97 0,14.07 0.2,30.04 0.5,47.91 0.4,17.86 0.5,27.99 0.5,30.39 0.9,4.53 1.7,10.11 2.2,16.71 0.6,6.6 0.9,13.26 0.9,19.95 0,9.56 0,19.11 0,28.67 1.1,10.13 2.3,20.26 3.4,30.41 0,4.23 -1.1,8.11 -3.4,11.65 -2.3,3.53 -4.6,4.9 -7.1,4.13 -1.2,-0.36 -2.3,-1.3 -3.4,-2.84 -3.7,3.23 -5.5,6.52 -5.5,9.9 0.7,2.38 1.1,4.1 1.4,5.14 1.3,3.81 2.5,5.87 3.3,6.16 0.9,0.28 2.1,0.14 3.4,-0.42 2.9,-1.32 7.3,-2.3 13.2,-2.99 0.9,2 1.7,4.9 2.5,8.72 0.8,3.82 2.5,6.11 4.9,6.88 5,1.54 9.3,-1.48 12.9,-9.08 2.4,-9.39 5,-18.65 7.7,-27.79 0.5,-1.09 3.3,-4.86 8.5,-11.43 2.4,-2.95 4.9,-6.77 7.4,-11.46 1.1,-1.89 5.5,-10.53 13.2,-26.19 11.2,-23.1 18,-36.53 20.2,-39.7 0,21.02 0,42.04 0,63.06 0,7.38 1.3,19.24 3.8,35.64 3.5,22.78 7.5,34.83 12.1,36.01 8.3,2.12 15.6,-24.23 21.8,-79.52 1.8,-16.32 4,-35.34 6.5,-57.1 1.4,-11.49 2.1,-18.88 2.1,-22.12 0,-2.75 -0.4,-5.32 -1,-7.68 1.6,-22.85 3.1,-45.73 4.7,-68.66"
         style="fill:#83689a;fill-opacity:1;fill-rule:nonzero;stroke:none"
         id="path180" />
      <path
         d="m 10488.4,7184.13 c 0,-2.61 0.1,-4.3 0.3,-5.07 l 0.7,-2.34 c -1.3,-1.31 -2.7,-2.76 -4.1,-4.34 -1.9,2.18 -3.8,4.35 -5.8,6.51 0,6.87 0,13.74 0,20.61 1.6,0.05 3.2,0.09 4.8,0.13 0.9,-1.79 1.8,-3.66 2.7,-5.59 0.9,-1.93 1.4,-5.23 1.4,-9.91 z m 119.4,98.25 c -1.3,-0.14 -2.5,-0.28 -3.8,-0.43 -4.3,0.45 -6.5,4.81 -6.5,13.15 0,5.92 1.1,12.69 3.1,20.33 -1.1,0.9 -1.9,1.71 -2.4,2.43 -0.4,0.7 -1.6,1.14 -3.4,1.28 -6.1,-1.96 -10.8,-3.4 -13.9,-4.29 -10.2,-3.41 -16.2,-5.76 -18,-6.74 5.2,-8.45 7.8,-17.82 7.8,-27.95 0,-2.4 -0.6,-5.97 -1.9,-10.7 -1.2,-4.73 -2.5,-9.6 -3.9,-14.57 0,-3.47 1.2,-7.54 3.7,-12.23 5.7,-10.5 8.5,-17.32 8.5,-20.26 0,-4.82 -2.6,-6.98 -7.8,-6.59 -4.3,0.32 -7.3,2.84 -9,7.6 -1.7,4.76 -2.5,10.71 -2.5,17.89 0,5.04 0.1,9.29 0.5,12.73 0.3,3.44 0.7,6.35 1.2,8.73 -2.3,-2.03 -4,-6.08 -5,-12.14 -1,-6.07 -1.5,-13.47 -1.5,-22.23 0,-9.55 0.3,-19 1,-28.32 0.7,-9.34 1.4,-17.35 2.1,-24.04 -1.6,-0.15 -3.1,-0.45 -4.5,-0.9 -2,0.13 -4,2.3 -5.9,6.52 -1.9,4.21 -2.9,8.55 -2.9,13.05 0,2.65 0.6,5.93 1.7,9.84 2.7,9.15 4.1,15.18 4.1,18.1 0,4.76 -1.8,9.56 -5.3,14.3 -3.5,4.75 -7.5,7.17 -12.1,7.25 -9.5,-2.09 -19,-4.32 -28.5,-6.69 -3.2,-0.57 -5.5,-0.88 -6.8,-0.92 -3.7,-0.08 -7.3,0.27 -11.1,1.04 -3.7,0.78 -7.4,1.59 -11,2.44 -0.7,-0.03 -2.2,-3.08 -4.5,-9.14 -0.6,-1.84 -1.7,-4.86 -3,-9.07 0,-0.25 1.6,-2.36 4.7,-6.35 3.2,-4 4.8,-10.42 4.8,-19.23 -0.8,-2.74 -1.6,-5.49 -2.4,-8.23 -1.1,-0.04 -2.2,-0.08 -3.4,-0.12 -2.7,4.04 -4.6,7.9 -5.6,11.58 -1,3.71 -1.5,7.48 -1.5,11.34 0,2.59 0.3,5.96 1,10.11 0.7,4.17 1,7.16 1,8.96 0,2.32 -0.2,3.99 -0.7,4.99 -1.3,3.53 -3.9,6.86 -7.8,9.94 -12.5,10.17 -18.9,15.22 -19.4,15.72 -9.3,11.38 -15.7,22.95 -19.4,34.94 -3.6,11.99 -5.4,24.92 -5.4,38.87 0,11.92 2.2,25.62 6.6,41.15 4.4,15.53 12.2,35.55 23.3,60.11 11.1,24.54 22.2,44.32 33.6,59.12 11.3,14.8 21.2,22.7 29.8,23.58 11.6,1.18 23.7,-3.7 36.3,-14.94 15,-13.26 24.2,-30.67 27.9,-51.48 0.6,-4.54 1,-8.56 1,-12.01 0,-4.81 -0.4,-9.08 -1.1,-12.8 -0.7,-3.74 -1.2,-6.8 -1.6,-9.19 0,-3.47 1.3,-6.61 3.9,-9.46 2.6,-2.85 3.9,-5.9 3.9,-9.1 0,-2.95 -0.8,-5.73 -2.3,-8.36 -1.5,-2.64 -3,-3.93 -4.3,-3.9 -4.1,0.08 -7.1,1.77 -8.8,5.11 -1.8,3.34 -2.6,7.79 -2.6,13.37 0,5.32 0.6,11.43 1.9,18.35 0.2,1.07 0.6,2.53 1.1,4.4 0,4.51 -3.6,6.92 -10.7,7.04 -7.1,0.12 -13.4,4.8 -18.9,14.03 -4.5,7.95 -7.9,14.3 -10.2,19.14 -2.9,6.37 -5.7,12.84 -8.5,19.43 -1.8,-1.99 -6.9,-12.65 -15.3,-31.93 -10.8,-24.73 -19.5,-47.77 -25.8,-69.09 -9.1,-30.12 -13.6,-55.12 -13.6,-75.21 0,-9.26 2.5,-17.14 7.5,-23.74 4.9,-6.6 10.6,-9.72 17,-9.4 3.6,0.2 8.7,1.61 15.4,4.19 6.7,2.59 10.1,5.54 10.1,8.94 -4.6,4.85 -8.7,10.11 -12.3,15.81 -3.6,5.69 -5.4,11.37 -5.4,17.09 0,5.19 5.8,11.05 17.3,17.32 13.6,7.39 30,11.29 49,11.02 9.7,-0.14 19.4,-2.2 28.9,-6.2 15,-6.48 22.5,-15.54 22.5,-26.32 0,-12.69 0,-25.38 0,-38.06"
         style="fill:#83689a;fill-opacity:1;fill-rule:nonzero;stroke:none"
         id="path182" />
      <path
         d="m 10697.3,7256.16 c 0,-11.39 -1.6,-20.27 -4.8,-26.67 -4,-8.1 -10.6,-11 -19.7,-8.96 -10.4,2.33 -17.7,9.89 -21.7,22.95 -2.8,8.44 -4.1,19.46 -4.1,33.13 0,8.47 1,16.23 3,23.28 3.2,10.97 8.1,15.94 14.6,14.74 8,-1.45 15.8,-9.09 23.5,-23.01 6.1,-11.09 9.2,-22.98 9.2,-35.46"
         style="fill:#83689a;fill-opacity:1;fill-rule:nonzero;stroke:none"
         id="path184" />
      <path
         d="m 10786.5,7226.43 c 0,-11.7 -1.6,-20.57 -4.8,-26.64 -4.1,-7.69 -10.6,-9.63 -19.7,-6.16 -10.4,3.99 -17.7,12.83 -21.7,26.85 -2.8,9.07 -4.1,20.59 -4.1,34.63 0,8.71 1,16.53 3,23.46 3.2,10.8 8.1,15.19 14.6,12.96 8,-2.69 15.8,-11.74 23.5,-27.24 6.1,-12.34 9.2,-25.04 9.2,-37.86"
         style="fill:#83689a;fill-opacity:1;fill-rule:nonzero;stroke:none"
         id="path186" />
      <path
         d="m 10875.7,7180.99 c 0,-12 -1.6,-20.83 -4.8,-26.5 -4,-7.18 -10.6,-8.03 -19.7,-2.91 -10.4,5.88 -17.7,16.16 -21.7,31.24 -2.8,9.76 -4.1,21.81 -4.1,36.23 0,8.94 1,16.8 3,23.58 3.2,10.55 8.1,14.23 14.7,10.83 7.9,-4.12 15.7,-14.75 23.4,-32 6.1,-13.74 9.2,-27.32 9.2,-40.47"
         style="fill:#83689a;fill-opacity:1;fill-rule:nonzero;stroke:none"
         id="path188" />
      <path
         d="m 4122.56,8554.75 c 0,521.91 -425.12,675 -949.51,675 -524.4,0 -949.51,-153.09 -949.51,-675 0,-497.4 386.21,-659.69 876.42,-673.84 l 73.08,-278.41 73.1,278.41 c 490.2,14.15 876.42,176.44 876.42,673.84"
         style="fill:#f4e7dd;fill-opacity:1;fill-rule:nonzero;stroke:none"
         id="path190" />
      <path
         d="m 2775.15,8544.28 c 0,-23.87 -4.08,-43.36 -12.22,-58.48 -10.48,-19.21 -27.36,-28.81 -50.63,-28.81 -26.77,0 -45.38,13.1 -55.86,39.28 -6.98,16.87 -10.48,39.85 -10.48,68.96 0,18.02 2.62,34.91 7.86,50.62 8.15,24.44 20.65,36.66 37.53,36.66 20.36,0 40.44,-12.81 60.23,-38.41 15.71,-20.37 23.57,-43.63 23.57,-69.82"
         style="fill:#43374e;fill-opacity:1;fill-rule:nonzero;stroke:none"
         id="path192" />
      <path
         d="m 3083.47,8544.28 c 0,-23.87 -4.07,-43.36 -12.21,-58.48 -10.48,-19.21 -27.37,-28.81 -50.63,-28.81 -26.78,0 -45.39,13.1 -55.87,39.28 -6.98,16.87 -10.47,39.85 -10.47,68.96 0,18.02 2.62,34.91 7.86,50.62 8.14,24.44 20.65,36.66 37.53,36.66 20.36,0 40.43,-12.81 60.23,-38.41 15.71,-20.37 23.56,-43.63 23.56,-69.82"
         style="fill:#43374e;fill-opacity:1;fill-rule:nonzero;stroke:none"
         id="path194" />
      <path
         d="m 3391.8,8544.28 c 0,-23.87 -4.08,-43.36 -12.21,-58.48 -10.49,-19.21 -27.37,-28.81 -50.63,-28.81 -26.78,0 -45.39,13.1 -55.87,39.28 -6.98,16.87 -10.47,39.85 -10.47,68.96 0,18.02 2.62,34.91 7.86,50.62 8.14,24.44 20.64,36.66 37.53,36.66 20.36,0 40.43,-12.81 60.22,-38.41 15.71,-20.37 23.57,-43.63 23.57,-69.82"
         style="fill:#43374e;fill-opacity:1;fill-rule:nonzero;stroke:none"
         id="path196" />
      <path
         d="m 3700.13,8544.28 c 0,-23.87 -4.08,-43.36 -12.22,-58.48 -10.48,-19.21 -27.36,-28.81 -50.62,-28.81 -26.78,0 -45.39,13.1 -55.87,39.28 -6.98,16.87 -10.47,39.85 -10.47,68.96 0,18.02 2.62,34.91 7.85,50.62 8.15,24.44 20.65,36.66 37.53,36.66 20.36,0 40.44,-12.81 60.23,-38.41 15.71,-20.37 23.57,-43.63 23.57,-69.82"
         style="fill:#43374e;fill-opacity:1;fill-rule:nonzero;stroke:none"
         id="path198" />
    </g>
  </g>
</svg>
